<?xml version="1.0" encoding="utf-8"?>
<!-- Generator: Adobe Illustrator 27.8.1, SVG Export Plug-In . SVG Version: 6.00 Build 0)  -->
<svg version="1.1" id="Calque_1" xmlns="http://www.w3.org/2000/svg" xmlns:xlink="http://www.w3.org/1999/xlink" x="0px" y="0px"
	 viewBox="0 0 300 300" style="enable-background:new 0 0 300 300;" xml:space="preserve">
<style type="text/css">
	.st0{fill-rule:evenodd;clip-rule:evenodd;fill:#FFFFFF;}
	.st1{display:none;fill-rule:evenodd;clip-rule:evenodd;fill:#A37CB5;}
</style>
<ellipse class="st0" cx="150.12" cy="169.76" rx="57.5" ry="56.5"/>
<polygon class="st0" points="150.12,53.26 165.62,86.26 179.62,116.26 150.12,121.45 113.62,124.26 131.62,90.17 "/>
<polygon class="st0" points="198.75,141.25 179.26,144.05 159.77,146.85 167.46,128.28 175.15,109.72 186.95,125.48 "/>
<polygon class="st0" points="139.08,142.83 120.16,141.47 101.24,140.12 111.27,124.71 121.3,109.31 130.19,126.07 "/>
<rect class="st1" width="300" height="300"/>
<g>
	<g>
		<path class="st0" d="M149.88,53.53c3.71,15.84,7.96,28.5,12.7,37.89c4.73,9.4,11.98,19.58,21.7,30.56l4.19,4.66
			c12.7,14.13,19.03,28.3,19.03,42.43c0,15.65-5.65,29.06-16.95,40.24c-11.35,11.18-24.87,16.8-40.63,16.8
			c-15.72,0-29.21-5.62-40.56-16.8c-11.32-11.18-16.98-24.59-16.98-40.24c0-14.13,6.33-28.3,19.03-42.43l4.19-4.66
			c9.71-10.98,16.95-21.17,21.7-30.56C142,82.03,146.23,69.37,149.88,53.53L149.88,53.53z M111.76,160.68
			c-0.29-3.2,2.08-6.04,5.28-6.33c3.22-0.29,6.05,2.08,6.33,5.28c0.73,7.75,2.43,14.9,5.67,21.07c3.13,5.96,7.8,11.08,14.54,15.03
			c2.78,1.63,3.71,5.21,2.08,7.98c-1.63,2.78-5.21,3.71-7.98,2.08c-8.78-5.14-14.86-11.83-18.98-19.65
			C114.71,178.52,112.63,169.91,111.76,160.68L111.76,160.68L111.76,160.68z"/>
	</g>
</g>
</svg>
