<?xml version="1.0" encoding="utf-8"?>
<!-- Generator: Adobe Illustrator 27.8.1, SVG Export Plug-In . SVG Version: 6.00 Build 0)  -->
<svg version="1.1" id="Calque_1" xmlns="http://www.w3.org/2000/svg" xmlns:xlink="http://www.w3.org/1999/xlink" x="0px" y="0px"
	 viewBox="0 0 495 775" style="enable-background:new 0 0 495 775;" xml:space="preserve">
<style type="text/css">
	.st0{fill:#73453C;}
	.st1{fill:#B62B4A;stroke:#000000;stroke-miterlimit:10;}
	.st2{fill:#F8D2B5;}
	.st3{fill:#DB9D88;}
	.st4{fill:#CA9F8D;}
	.st5{fill:#FFFFFE;}
	.st6{fill:#D8E9F1;}
	.st7{fill:#EB9294;}
	.st8{fill:#E88594;}
	.st9{fill:#F5EF86;}
	.st10{fill:#E57284;}
	.st11{fill-opacity:0;stroke:#1A1919;stroke-width:6;stroke-linecap:round;stroke-linejoin:round;}
	.st12{fill-opacity:0;stroke:#1A1919;stroke-width:7;stroke-linecap:round;stroke-linejoin:round;}
	.st13{fill:#1A1919;}
	.st14{fill-opacity:0;stroke:#1A1919;stroke-width:6;}
</style>
<g id="Layer_1">
	<path class="st0" d="M226.2,447.4c84.9-2.5,106-57.5,106-57.5c5.8,20.9-7.9,38.8-7.9,38.8c61.2-37.2,46.8-159.1,46.8-159.1
		c21.8-116-65.2-243.6-114.7-237.1C242.7,9,191.2-1.8,141,16.5C90.8,34.9-20.6,116.2,8.2,269.5c0,0-14.4,121.9,46.8,159.1
		c0,0-13.6-17.8-7.9-38.8c0,0,21.1,55.1,106,57.5"/>
	<rect y="0" class="st1" width="495" height="771.5"/>
	<rect y="0" class="st1" width="495" height="771.5"/>
	<path class="st2" d="M296.3,770.9l20.3-116.2l4.2-13c0,0,30.8,88.6,38.8,98.2c14.5,17.6,38.2,19.4,51.5-4.8
		c13.3-24.3,57-200.7,57-200.7s19.8-52.2,19.8-65.1s-6.5-30.3-12.9-32.7c-6.5-2.4-41-18-54.6-15c-7.3,1.6-11.7,10.7-10.9,16.4
		c0,0-5.3,1.4-5.3,5.5c0,4-4.4,35.2,2.8,45.3c7.3,10.1,24.6,38.4,24.6,38.4s-21.3,59.9-39.1,103.4l-5.8,9.4
		c-6.7-12.7-21.8-79.4-33.4-97c-16-24.4-45.9-29.9-45.9-29.9c-36.4-13-92.8-34.8-92.8-34.8h-50.5c0,0-43.1,19.4-92.8,34.8
		c0,0-28.8,7.8-44.9,27.5c-23.5,28.7-16.2,74.8-11.9,108.3C18.7,682.5,26,771.6,26,771.6"/>
	<path class="st2" d="M189.7,504.3c-8.6-3.9-17.2-9.8-24.5-15.9l0.2-4.4c4.7-7.5,6.2-21.4,6.8-28.5l35.1-0.3
		c0.5,7.1,2,21.3,6.8,28.9l-2.7,5.6c-5.5,4.9-11.6,10.1-18.3,15.4L189.7,504.3"/>
	<g>
		<path class="st3" d="M170.4,456H210v9.4c0,0-12.1,18.3-43,12L170.4,456"/>
		<path class="st4" d="M150.5,40.3C199,22,248.7,32.7,261.9,56.1c12.6-7.8,68.3,22.3,94.3,87C335,62.3,268.2,24,254.1,32.7
			C240.9,9.3,191.2-1.4,142.7,16.9C94.3,35.2-21.6,105.7,6.2,259l4,8.8C-1.8,122.8,104.2,57.8,150.5,40.3"/>
	</g>
	<path class="st4" d="M91.3,58.6c0,0,41.2,39.4,110.1,39.6c0,0,19.6,5.4-15.7,7.6s-96.6-3.5-119-17.9L91.3,58.6"/>
	<path class="st2" d="M45,276.7c3.5,42.9,17.1,90.3,36.7,117.1c29.4,40.2,84.3,62.9,108.1,62.9c23.7,0,78.7-22.7,108-62.9
		c18.7-25.6,31.7-70.3,35.9-109.3c-38.7-56.3-80.2-147.4-77-178.5c0,0-28.3,96.2-110.4,110.9c0,0,54.8-37.2,56-83.4
		c0,0-37.9,77.5-117.7,86.9c0,0,41.5-47.5,38.3-78.1C122.9,142.3,66.6,178,45,276.7"/>
	<path class="st5" d="M161.3,267.8c0,19.7-14.7,35.7-32.9,35.7s-32.9-16-32.9-35.7s14.7-35.7,32.9-35.7
		C146.6,232,161.3,248,161.3,267.8"/>
	<path class="st6" d="M95.2,261.9c0,0,3.5-22.6,27-28.9c27.6-7.3,34.6,17.6,34.6,17.6s-14.3-9.6-31.4-5.6
		C109.2,248.6,95.2,261.9,95.2,261.9"/>
	<path class="st5" d="M218.2,267.8c0,19.7,14.7,35.7,32.9,35.7s32.9-16,32.9-35.7s-14.7-35.7-32.9-35.7
		C232.9,232,218.2,248,218.2,267.8"/>
	<path class="st6" d="M284.3,261.9c0,0-3.5-22.6-27-28.9c-27.6-7.3-34.6,17.6-34.6,17.6s14.3-9.6,31.4-5.6
		C270.2,248.6,284.3,261.9,284.3,261.9"/>
	<path class="st7" d="M64.9,324c0,7.4,11.9,13.5,26.6,13.5s26.6-6,26.6-13.5c0-7.4-11.9-13.5-26.6-13.5S64.9,316.6,64.9,324"/>
	<path class="st7" d="M261,324c0,7.4,11.9,13.5,26.6,13.5s26.6-6,26.6-13.5c0-7.4-11.9-13.5-26.6-13.5S261,316.6,261,324"/>
	<path class="st5" d="M258.8,544.4c-18.9,3.5-43.2,5.7-69.8,5.7c-25.9,0-49.6-2-68.3-5.4l-4,0.4c0,0,12.2,21.2,17.5,23.8
		c5.3,2.5,50.6,6.6,61.9,5.9s40.9-5.9,44.1-6.9c3.1-0.9,17.2-10.9,19.4-15.3c2.2-4.4,4.1-10.6,4.1-10.6L258.8,544.4"/>
	<path class="st8" d="M296.3,770.9l24.1-138.1l0.6-11.7c-23-29.1-22.4-109.2-22.4-109.2l-24.3-10.3c0,0-10.3,56.1-38.8,64
		c-22.7,6.3-69.1,6.3-91.8,0c-28.5-7.9-38.8-64-38.8-64l-24.3,10.3c0,0,0.6,80.1-22.4,109.2l0.5,11.3l24.2,138.5H296.3"/>
	<path class="st9" d="M89,508.4l-8.4,3.6c0,0,0.6,80.1-22.4,109.2l0.4,9.5c6.3-2,9.6-6.5,9.6-6.5C87.4,596,90.1,539,90.5,518.6
		L89,508.4"/>
	<path class="st9" d="M290.1,508.4l8.4,3.6c0,0-0.6,80.1,22.4,109.2l-0.4,9.5c-6.3-2-9.6-6.5-9.6-6.5C291.7,596,289,539,288.6,518.6
		L290.1,508.4"/>
	<path class="st9" d="M274.2,501.6c0,0-10.3,56.1-38.8,64c-22.7,6.3-69.1,6.3-91.8,0c-28.5-7.9-38.8-64-38.8-64l-8.4,3.6l1.5,10.2
		c5.1,18.8,17.7,52.8,43.2,59.8c11.6,3.2,29.3,5.1,48.5,5.1s36.9-1.8,48.5-5.1c25.4-7,38-41,43.1-59.8l2.4-9.8L274.2,501.6"/>
	<path class="st10" d="M134.7,692.3c-23,0-45.2-1.6-66.4-4.6l14.5,83.1h213.5l20.6-118.1C269.6,677.3,205.4,692.3,134.7,692.3"/>
	<path class="st9" d="M130.6,619h3.4c1.1,0,1.9-0.2,2.4-0.6c0.5-0.4,0.7-0.9,0.7-1.6c0-0.6-0.2-1.1-0.7-1.5s-1.3-0.6-2.4-0.6h-3.4
		V619z M130.6,610.6h2.9c1,0,1.8-0.2,2.2-0.5c0.4-0.4,0.6-0.9,0.6-1.5s-0.2-1.1-0.6-1.5c-0.4-0.4-1.1-0.5-2.1-0.5h-2.9L130.6,610.6
		L130.6,610.6z M123.9,602.2h12.4c2.1,0,3.7,0.5,4.8,1.5s1.7,2.3,1.7,3.8c0,1.3-0.4,2.4-1.2,3.3c-0.5,0.6-1.3,1.1-2.3,1.4
		c1.5,0.4,2.7,1,3.4,1.9s1.1,2,1.1,3.4c0,1.1-0.3,2.1-0.8,3s-1.2,1.6-2.1,2.1c-0.6,0.3-1.4,0.6-2.5,0.7c-1.5,0.2-2.5,0.3-3,0.3
		h-11.5L123.9,602.2"/>
	<path class="st9" d="M147.2,602.2H165v4.6h-11.1v3.4h10.3v4.4h-10.3v4.2h11.5v4.9h-18.1L147.2,602.2"/>
	<path class="st9" d="M180.7,615.5l-2.4-7.7l-2.3,7.7H180.7z M182.1,620.1h-7.5l-1,3.5h-6.8l8.1-21.5h7.2l8.1,21.5h-6.9L182.1,620.1
		"/>
	<path class="st9" d="M206.2,602.2h6.6V615c0,1.3-0.2,2.5-0.6,3.6c-0.4,1.1-1,2.1-1.9,3c-0.9,0.8-1.7,1.4-2.7,1.8
		c-1.3,0.5-2.8,0.7-4.6,0.7c-1,0-2.2-0.1-3.4-0.2c-1.2-0.1-2.3-0.4-3.1-0.9c-0.8-0.4-1.6-1.1-2.3-1.9c-0.7-0.8-1.1-1.6-1.4-2.5
		c-0.4-1.4-0.6-2.6-0.6-3.6v-12.8h6.6v13.1c0,1.2,0.3,2.1,1,2.7c0.6,0.7,1.6,1,2.7,1c1.1,0,2-0.3,2.7-1c0.6-0.6,1-1.6,1-2.8V602.2"
		/>
	<path class="st9" d="M215.7,602.2h20.2v5.3h-6.8v16.2h-6.6v-16.2h-6.8L215.7,602.2"/>
	<path class="st9" d="M236.7,602.2h7.4l4.3,7.2l4.3-7.2h7.3l-8.4,12.5v9H245v-9L236.7,602.2"/>
	<path class="st11" d="M49.6,580.9l33.2,190"/>
	<path class="st12" d="M135.9,362c0,0,18.7,31.9,52.8,31.9c34.2,0,52.9-31.9,52.9-31.9 M189.6,332.6v-7.4"/>
	<path class="st11" d="M224.1,205.2c0,0,32.5-23.8,53,4.9"/>
	<path class="st12" d="M158.1,252.6c0,0-8.7-29.1-35.7-22.3c-29.6,7.5-27.1,47.8-27.1,47.8"/>
	<path class="st11" d="M94.2,267.5l-9.6-2.3"/>
	<path class="st12" d="M221.4,252.6c0,0,8.7-29.1,35.7-22.3c29.6,7.5,27.1,47.8,27.1,47.8"/>
	<path class="st11" d="M285.3,267.5l9.6-2.3"/>
	<path class="st12" d="M170.8,455.5c-0.6,7.2-2.2,21-7.3,28.5 M226.2,447.4c84.9-2.5,106-57.5,106-57.5c5.8,20.9-7.9,38.8-7.9,38.8
		c61.2-37.2,46.8-159.1,46.8-159.1c21.8-116-65.2-243.6-114.7-237.1C242.7,9,191.2-1.8,141,16.5C90.8,34.9-20.6,116.2,8.2,269.5
		c0,0-14.4,121.9,46.8,159.1c0,0-13.6-17.8-7.9-38.8c0,0,21.1,55.1,106,57.5 M208.7,455.1c0.5,7.1,2.2,21.3,7.3,28.9"/>
	<path class="st13" d="M152.8,270.3c0,15.3-7.4,27.8-16.6,27.8c-9.2,0-16.6-12.5-16.6-27.8c0-15.4,7.4-27.8,16.6-27.8
		C145.3,242.5,152.8,254.9,152.8,270.3"/>
	<path class="st5" d="M152.1,259.9c0,3.3-2.6,6-5.9,6c-3.3,0-5.9-2.7-5.9-6s2.6-6,5.9-6C149.5,254,152.1,256.6,152.1,259.9"/>
	<path class="st13" d="M226.7,270.3c0,15.3,7.4,27.8,16.6,27.8c9.2,0,16.6-12.5,16.6-27.8c0-15.4-7.4-27.8-16.6-27.8
		C234.2,242.5,226.7,254.9,226.7,270.3"/>
	<path class="st5" d="M259.3,259.9c0,3.3-2.6,6-5.9,6c-3.2,0-5.9-2.7-5.9-6s2.6-6,5.9-6C256.7,254,259.3,256.6,259.3,259.9"/>
	<g>
		<path class="st12" d="M45,276.7c3.5,42.9,17.1,90.3,36.7,117.1c29.4,40.2,84.3,62.9,108.1,62.9c23.7,0,78.7-22.7,108-62.9
			c18.7-25.6,31.7-70.3,35.9-109.3C295,232,253.5,137.1,256.7,106c0,0-28.3,96.2-110.4,110.9c0,0,54.8-37.2,56-83.4
			c0,0-37.9,77.5-117.7,86.9c0,0,41.5-47.5,38.3-78.1C122.9,142.3,66.6,178,45,276.7z M164.3,478.2c0,0-43.1,19.4-92.8,34.8
			c0,0-28.8,7.8-44.9,27.5c-23.5,28.7-16.2,74.8-11.9,108.3c4.2,33.6,11.5,122.7,11.5,122.7"/>
		<path class="st11" d="M329.4,580.9l-33.2,190"/>
		<path class="st12" d="M214.8,478.2c0,0,56.4,21.8,92.8,34.8c0,0,29.9,5.5,45.9,29.9c11.5,17.6,26.7,84.3,33.4,97 M320.7,641.7
			c0,0,30.8,88.6,38.8,98.2c14.5,17.6,38.2,19.4,51.5-4.8c13.3-24.3,57-200.7,57-200.7s19.8-52.2,19.8-65.1s-6.5-30.3-12.9-32.7
			c-6.5-2.4-41-18-54.6-15c-7.3,1.6-11.7,10.7-10.9,16.4c0,0-5.3,1.4-5.3,5.5c0,4-4.4,35.2,2.8,45.3c7.3,10.1,24.6,38.4,24.6,38.4
			s-40,112.8-56.4,141.3"/>
		<path class="st11" d="M409.1,439.4c0,0,6.9,3.6,8.5,10.5s2.8,23.9,2.8,23.9s16.6,7.3,21.8,15 M460.2,431.1
			c-5.9-0.8-13.3,1.8-14.6,9.9c-1.2,7.9-0.6,27.1,3.9,29.3c3.1,1.5,21,2.5,23.4,1.6s2.6-7.5-2.4-11.2c-2.9-2.1-10.7-5.1-10.7-5.1
			s11.9,0,15.4-4.9 M442,425.4c-3.7,0.2-9.1,4.4-10.3,10.9c-1.3,7-1.4,29.3,2.6,33c2.3,2.1,8.7,2.6,13.7,1.2 M429.3,421.8
			c0,0-6.9,3-8.5,12.3c-1.1,6.2-2.2,21.6-2.2,21.6 M421.6,467.7c0,0,6.1,5,12.7,3 M470.7,472.5c0,0-20.2,20-15.4,38.4 M80.6,511.9
			c0,0,0.6,80.1-22.4,109.2 M298.5,511.9c0,0-0.6,80.1,22.4,109.2 M274.2,501.6c0,0-10.3,56.1-38.8,64c-22.7,6.3-69.1,6.3-91.8,0
			c-28.5-7.9-38.8-64-38.8-64"/>
	</g>
	<path class="st14" d="M258.8,544.4c-18.9,3.5-43.2,5.7-69.8,5.7c-25.9,0-49.6-2-68.3-5.4"/>
</g>
</svg>
