<?xml version="1.0" encoding="utf-8"?>
<!-- Generator: Adobe Illustrator 27.8.1, SVG Export Plug-In . SVG Version: 6.00 Build 0)  -->
<svg version="1.1" id="Calque_1" xmlns="http://www.w3.org/2000/svg" xmlns:xlink="http://www.w3.org/1999/xlink" x="0px" y="0px"
	 viewBox="0 0 645 800" style="enable-background:new 0 0 645 800;" xml:space="preserve">
<style type="text/css">
	.st0{fill:#E46E81;}
	.st1{fill:#B62B4A;stroke:#000000;stroke-miterlimit:10;}
	.st2{fill:#F8D4B3;}
	.st3{fill:#CF957E;}
	.st4{fill:#CE5262;}
	.st5{fill:#FFFFFE;}
	.st6{fill:#7D4D3F;}
	.st7{fill:#E0B79F;}
	.st8{fill:#F7CCAA;}
	.st9{fill:#1A1919;}
	.st10{fill:#DF7370;}
	.st11{fill:#EC9896;}
	.st12{fill:#A8BFD9;}
	.st13{fill:#C35953;}
	.st14{fill:#D2E0EB;}
	.st15{fill:#F2BBBC;}
	.st16{fill-opacity:0;stroke:#1A1919;stroke-width:7;stroke-linecap:round;stroke-linejoin:round;}
	.st17{fill-opacity:0;stroke:#1A1919;stroke-width:8;stroke-linecap:round;stroke-linejoin:round;}
</style>
<g id="Layer_1">
	<path class="st0" d="M521.9,791.3c3.1-10.4,8.1-42.3,13-76l2.1-14.5l20.8,95.7h53.8c0,0-19.4-167.1-24.2-203.2
		c-4.8-36.1-31.9-52.7-49.6-57.2c-17.8-4.6-91.4-27.8-91.4-27.8l-52.3,4.6c0,0-57.2,20.3-72.1,23.2s-35.5,13.7-42.9,29.8
		c-7.4,16-52.6,99-52.6,99l-3.1-12.3c-4.4-20.8-7.8-39.4-8.3-43.7c-1.1-9.7-14.7-5.7-14.7-5.7L161,623.4c0,0-19.6,18.7-14.1,29
		s17.7,72,21.2,92c3.4,20,25.3,36,42.4,29.8c29.8-10.9,89.4-100.4,89.4-100.4l1.2,9c6,43.5,13.5,94.7,17.5,108.5H521.9"/>
	<rect y="0" class="st1" width="645" height="800"/>
	<rect y="0" class="st1" width="645" height="800"/>
	<path class="st2" d="M446.4,517.2l-1.1-20.4l1.1-13.4l-51.2,3v10.3l-1.1,20.4l4.8,58.7h34.3L446.4,517.2"/>
	<path class="st3" d="M395.2,490.2h50.1l0.4,24.4c0,0-9.5,14-45.8,19.1l-6.4-14.6L395.2,490.2"/>
	<path class="st4" d="M420.5,711.9c-42.4,0-97.9-8.9-120-28.8c4,26.9,15.5,99.7,18,108.3h203.4c2.5-8.6,13.7-80.7,17.7-107.5
		C513.8,703.4,462.6,711.9,420.5,711.9"/>
	<path class="st5" d="M421,731.8l30-162.3v-59.8l-30.4,58.9l-30.1-54.5v55.3l29,162.3"/>
	<path class="st5" d="M390.8,515.1l-4.1,2.1l-11.4,60.2l37.7-19.5L390.8,515.1"/>
	<g>
		<path class="st5" d="M427.5,557.8l37.7,19.5l-11.5-66.8l-2.8-0.9L427.5,557.8"/>
		<path class="st6" d="M470,492.2c84.4,9.8,99.8-35.6,99.8-35.6l10.8,43.3c29.2-24.2,36-128.8,36-128.8l11.5-93.6
			c14.8-211.9-96.2-222.4-96.2-222.4c-23.4-52.5-194.7-90-280.8,35.4c-54.4,79.3-44.5,190-44.5,190l27.5,95.5
			c0,0,21.1,77.9,1.3,114.6c0,0,36.9-7.5,41-19.2c0,0,11.7,24.2,86.7,19.2"/>
		<path class="st7" d="M531.9,55.2c-23.4-52.5-194.7-90-280.8,35.4c-54.4,79.3-44.5,190-44.5,190l17.1-4.2c0,0-9.5-148.6,77.7-212.9
			c99.8-73.6,192.2-26.5,228.3-9.2C530.7,54.3,531.9,55.2,531.9,55.2"/>
		<path class="st8" d="M250.2,289.2c0,0-10.1-19.6-29.1-13.7c-39.6,12.4-26.9,98.3,38.6,105.7"/>
		<path class="st8" d="M588,289.6c0,0,10.1-19.6,29.1-13.7c39.6,12.4,29.1,98.3-37.4,105.7"/>
	</g>
	<path class="st8" d="M585.9,268.9c-4.7,11.2-9.6,18.1-9.6,18.1c-15.7-120.8-145.7-174.3-145.7-174.3c68.5,60.2,69.1,93.9,69.1,93.9
		c-115.6,6.2-173.5-76.1-173.5-76.1s-0.6,14.3-8.1,36.2c-8.9,25.8-27.5,62.1-66.1,97.8c-0.1,0.5-0.1,0.9-0.1,0.9
		c-2,32.6-1.4,89.2,13.7,134.7c26.9,80.4,112.6,98.7,153.3,98.7s126.5-18.2,153.3-98.7c14.4-43,20.6-96.6,14-129.2
		C586.2,270.1,586.1,269.5,585.9,268.9"/>
	<path class="st5" d="M374.6,303.1c0,24.8-15.4,45-34.5,45c-19,0-34.5-20.1-34.5-45c0-24.8,15.4-45,34.5-45
		C359.1,258.1,374.6,278.2,374.6,303.1"/>
	<path class="st5" d="M534.2,303.1c0,24.8-15.4,45-34.5,45c-19,0-34.5-20.1-34.5-45c0-24.8,15.4-45,34.5-45
		C518.8,258.1,534.2,278.2,534.2,303.1"/>
	<path class="st9" d="M369.2,309.5c0,16.9-9.5,30.6-21.2,30.6s-21.2-13.7-21.2-30.6s9.5-30.6,21.2-30.6S369.2,292.6,369.2,309.5"/>
	<path class="st9" d="M470,309.5c0,16.9,9.5,30.6,21.2,30.6s21.3-13.7,21.3-30.6s-9.5-30.6-21.3-30.6S470,292.6,470,309.5"/>
	<path class="st10" d="M420,470.5c-52.5,0-56.2-61.2-56.9-75c0,0,55.8,17.5,111.7,0c-0.6,13.8-4.4,75-56.9,75"/>
	<path class="st11" d="M321,353.1c0,7.8-13.1,14.1-29.3,14.1c-16.2,0-29.3-6.3-29.3-14.1c0-7.8,13.1-14.1,29.3-14.1
		S321,345.3,321,353.1"/>
	<path class="st11" d="M575.8,353.1c0,7.8-13.1,14.1-29.3,14.1s-29.3-6.3-29.3-14.1c0-7.8,13.1-14.1,29.3-14.1
		S575.8,345.3,575.8,353.1"/>
	<path class="st5" d="M368.8,299.3c0,3.5-2.8,6.3-6.3,6.3s-6.3-2.8-6.3-6.3s2.8-6.3,6.3-6.3S368.8,295.8,368.8,299.3"/>
	<path class="st5" d="M510.9,299.3c0,3.5-2.8,6.3-6.3,6.3s-6.3-2.8-6.3-6.3s2.8-6.3,6.3-6.3S510.9,295.8,510.9,299.3"/>
	<path class="st3" d="M254.8,354.2l-2.9-31.6c0,0-8.2-19.6-20.8-22.6c-16.2-3.9-16.6,22.3-5.4,37.1
		C242.7,359.6,254.8,354.2,254.8,354.2"/>
	<path class="st3" d="M585.7,354.2l2.9-31.6c0,0,8.2-19.6,20.8-22.6c16.2-3.9,16.6,22.3,5.4,37.1
		C597.7,359.6,585.7,354.2,585.7,354.2"/>
	<path class="st12" d="M391.4,570.6l22.6-12.4l6.6,10.5l7.4-10.5l21.3,11.1l-1.3,17.8c0,0-4.6-12.7-25.8-12.7
		c-21.1,0-29.5,13-29.5,13L391.4,570.6"/>
	<path class="st13" d="M415.7,416.4c19.8,0,37.4,9.2,49.2,23.7c8.4-17.5,9.6-37.4,9.9-44.5c-55.8,17.5-111.7,0-111.7,0
		c0.3,6.5,1.3,23.5,7.8,39.7C382.5,423.6,398.3,416.4,415.7,416.4"/>
	<path class="st14" d="M343.2,269.1c8,0,15.6,1.5,22.6,4c-6.3-9.2-15.4-15-25.6-15c-11.5,0-21.7,7.4-27.9,18.7
		C321.3,271.9,331.9,269.1,343.2,269.1"/>
	<g>
		<path class="st14" d="M496.9,269.1c-8,0-15.6,1.5-22.6,4c6.3-9.2,15.4-15,25.6-15c11.5,0,21.7,7.4,28,18.7
			C518.8,271.9,508.2,269.1,496.9,269.1"/>
		<path class="st8" d="M163.3,651.5c-2.3-18.4-14.3-54.8-14.3-54.8s-32.8,2.5-84.7-31.9c0,0-30.5-9.3-54.6-17.7
			c-15.9-5.5,3.9-12.3,3.9-12.3s-9-4.5-8.7-9.8c0.5-7.4,10.8-7.2,10.8-7.2s-2.2-6,3.5-10.5c5.6-4.4,16.1-3.5,16.1-3.5
			s-2-7.3,3.8-10.5c13.6-7.5,51.2,2,84.8,20.6l7.1-0.3c-2.1-2.7-3.9-5.8-4.8-9.2c-3.2-12.5-1.6-18,2.3-19.8
			c3.9-1.8,12.5,4.5,18,10.5c5.5,5.9,18.9,19.1,25,24.1c4.7,3.8,20,21.8,20.3,43.2l-0.6,12.2c0,0,1.9,31,11.4,46.2l-1.1,5.1
			c-7.1,9.1-18.3,19.8-33.9,24.4L163.3,651.5"/>
	</g>
	<path class="st3" d="M157.1,620.7c0,0,15,20.9,39.1,9.6c0,0,5.6,1.9-10.2,11.5c-15.8,9.7-22.8,9.6-22.8,9.6L157.1,620.7"/>
	<path class="st15" d="M387,514l-52.7,19.5c0,0-41.5,7.6-55.2,32.3s-51.9,100.3-51.9,100.3l2.4,16.1c0,0,56.4-103.3,73.6-122.4
		c11.2-12.4,81.2-28.5,81.2-28.5L387,514"/>
	<path class="st15" d="M453.8,510.6l2,16c0,0,45.1,11.1,86.6,24.6c31.6,10.2,35.9,33.4,46,41.7c0,0-10.2-41.4-45.8-55.8
		C530.9,532.3,453.8,510.6,453.8,510.6"/>
	<path class="st7" d="M270.6,81.8c54.6,18.3,90.8,18.5,111.1,15.7c13.6-1.9,6.5-6.8,0.2-7.8c-64-11.2-83-35.8-83-35.8L270.6,81.8"/>
	<path class="st16" d="M163.3,651.5c-2.3-18.4-14.3-54.8-14.3-54.8 M369.4,221.2c-13.1-10-46.2-15-64.4,6.9"/>
	<path class="st17" d="M370.8,277c-14.5-30.5-75.1-30.6-66.4,41.3"/>
	<path class="st16" d="M250.2,289.2c0,0-10.1-19.6-29.1-13.7c-39.6,12.4-26.9,98.3,38.6,105.7 M221.8,298.7c0,0,13.1-8.9,29.1,26.1
		 M251.9,265.3c-2,32.6-1.4,89.2,13.7,134.7c26.9,80.4,112.6,98.7,153.3,98.7s126.5-18.2,153.3-98.7c14.4-43,15.6-96,14-129.2
		 M467.5,221.2c13.1-10,46.3-15,64.4,6.9"/>
	<g>
		<path class="st17" d="M467.6,280c11.8-33.4,76.6-35.8,67.6,38.3"/>
		<path class="st16" d="M588,289.6c0,0,10.1-19.6,29.1-13.7c39.6,12.4,29.1,98.3-37.4,105.7 M616,299.1c0,0-13.1-8.9-29.1,26.1
			 M292.5,297l11,6.9 M536.1,303.9l14.8-6.9 M419,376.2v-10 M582.3,179.5c31.8,54.2-6,107.5-6,107.5
			c-15.7-120.8-145.7-174.3-145.7-174.3c68.5,60.2,69.1,93.9,69.1,93.9c-115.6,6.2-173.5-76.1-173.5-76.1s-3,70-77.4,136.9
			c0,0-10.7-47,4.9-82 M207.7,284.4c0,0-11.1-114.6,43.4-193.8C337.2-34.8,508.5,2.7,531.9,55.2c0,0,110.7,13.4,95.9,225.3
			 M234.2,376.2c0,0,21.1,77.9,1.3,114.6c0,0,36.9-7.5,41-19.2c0,0,11.7,24.2,86.7,19.2 M616.7,371.2c0,0-6.9,104.6-36,128.8
			l-10.8-43.3c0,0-15.4,45.4-99.8,35.6 M191.2,574.7c0,0,1.9,31,11.4,46.2 M197.4,603.9c0,0,16.4-6.2,17.6,4.9
			c1.1,9.7,17.1,92,25.1,107.6 M208.6,615.3c-5.3,9.6-22.2,35.1-52.5,37 M158.2,626.3c-5.2,5.7-15.5,18.3-11.3,26.1
			c5.5,10.3,17.7,72,21.2,92c3.4,20,25.3,36,42.4,29.8c29.8-10.9,89.4-100.4,89.4-100.4 M394.1,512.9c0,0-57.2,20.3-72.1,23.2
			s-35.5,13.7-42.9,29.8c-7.4,16-52.6,99-52.6,99 M446.4,508.3c0,0,73.6,23.2,91.4,27.8c17.7,4.6,44.8,21.2,49.6,57.2
			c4.8,36.1,24.2,203.2,24.2,203.2 M292.3,616.2c0,0,18.9,150,26.3,175.1 M548.3,616.2c0,0-18.9,150-26.3,175.1 M537,700.8
			l20.8,95.7 M390.5,514.2l30.1,54.5l30.4-58.9 M413,557.8l-37.7,19.5l11.4-60.2 M390.5,569.5l29,162.3 M375.4,519.4l-30.8,49.3
			L360,583l-17.4,19.2L409,727.8 M453.8,510.6l11.5,66.8l-37.7-19.5 M451,569.5l-30,162.3 M462.9,513.5l33,55.2L480.5,583l17.4,19.2
			l-66.4,125.6 M394.1,517.2l1.1-19.3 M446.4,517.2l-1.1-20.4 M420,470.5c-52.5,0-56.2-61.2-56.9-75c0,0,55.8,17.5,111.7,0
			c-0.6,13.8-4.4,75-56.9,75 M159.4,596.8c0,0-41.2,4.1-95.1-32.1c0,0-30.5-9.3-54.6-17.7c-15.9-5.5,3.9-12.3,3.9-12.3
			s-9-4.5-8.7-9.8c0.5-7.4,10.8-7.2,10.8-7.2s-2.2-6,3.5-10.5c5.6-4.4,16.1-3.5,16.1-3.5s-2-7.3,3.8-10.5c13.6-7.5,51.2,2,84.8,20.6
			 M187,583.2c15-29.6-9.3-58.9-15.5-64c-6.1-5-19.6-18.2-25-24.1c-5.5-5.9-14.1-12.3-18-10.5c-3.9,1.8-5.5,7.3-2.3,19.8
			c3.2,12.5,18.4,20.5,18.4,20.5s-5.5,31.4,13.4,41.4 M127.8,514.4c0,0-34.6,7.1-59.9,39.8 M15,534.7c0,0,24.6-1.8,55.3,12.8
			 M15.4,517.9c0,0,31.9-3.2,73.1,15 M34.5,503.6c0.7-0.1,37.1-0.7,69,20.4"/>
	</g>
</g>
</svg>
