<?xml version="1.0" encoding="UTF-8"?>
<svg id="svg2" xmlns="http://www.w3.org/2000/svg" xmlns:xlink="http://www.w3.org/1999/xlink" viewBox="0 0 490 625.26">
  <defs>
    <style>
      .cls-1 {
        stroke-width: .03px;
      }

      .cls-1, .cls-2, .cls-3, .cls-4, .cls-5, .cls-6, .cls-7, .cls-8, .cls-9, .cls-10 {
        stroke: #000;
      }

      .cls-1, .cls-3 {
        fill: #b3b3b3;
      }

      .cls-11 {
        filter: url(#filter4530-2);
      }

      .cls-12 {
        filter: url(#filter4530);
      }

      .cls-13 {
        opacity: .54;
      }

      .cls-13, .cls-14, .cls-15, .cls-16, .cls-17, .cls-18, .cls-19, .cls-20, .cls-21, .cls-22, .cls-23 {
        stroke-width: 0px;
      }

      .cls-13, .cls-20 {
        fill: #fff;
      }

      .cls-13, .cls-23 {
        isolation: isolate;
      }

      .cls-2, .cls-3 {
        stroke-width: .11px;
      }

      .cls-2, .cls-7, .cls-23 {
        fill: #ebaf75;
      }

      .cls-24 {
        fill: #fadec1;
        stroke: #532f2f;
        stroke-width: 1.01px;
      }

      .cls-5, .cls-16, .cls-10 {
        fill: #2054c7;
      }

      .cls-6 {
        fill: #a14f16;
      }

      .cls-8 {
        stroke-width: .6px;
      }

      .cls-8, .cls-9, .cls-25 {
        fill: none;
      }

      .cls-26 {
        opacity: .42;
      }

      .cls-25 {
        stroke: #ff0057;
      }

      .cls-15 {
        fill: #760000;
      }

      .cls-17 {
        fill: #c05a17;
      }

      .cls-18 {
        fill: #9d9de0;
      }

      .cls-19 {
        fill: #b62b4a;
      }

      .cls-21 {
        fill: #f0f;
      }

      .cls-22 {
        fill: red;
      }

      .cls-23 {
        opacity: .99;
      }

      .cls-10 {
        stroke-width: .21px;
      }
    </style>
    <filter id="filter4530" x="-1.1694" y="-1.1345" width="3.3387" height="3.2689">
      <feGaussianBlur stdDeviation="1.4138644"/>
    </filter>
    <filter id="filter4530-2" data-name="filter4530" x="-1.1694" y="-1.1345" width="3.3387" height="3.2689">
      <feGaussianBlur stdDeviation="1.4138644"/>
    </filter>
  </defs>
  <g id="_base_" data-name="&amp;lt;base&amp;gt;">
    <rect class="cls-19" width="490" height="624.84"/>
  </g>
  <g id="layer1">
    <g id="g4727">
      <path id="path3768" class="cls-6" d="m195.07,380.96c24.13-4.67,36.05-11.71,53-21.82-37.38-12.39-49.62-48.24-64.66-78.33.13,34.16,3,68.07,11.65,100.15h0Z"/>
      <path id="path3770" class="cls-6" d="m343.35,376.51c-2.59-10.68-20.13-10.99-25.19-11.5,20.32-4.87,39.66-18.26,48.12-49.69,1,13.36-10.08,40.16-21.24,61.57l-1.69-.39Z"/>
      <path id="path3774" class="cls-24" d="m273.34,374.15c-23.74-2.32-33.03-13.43-47.33-21.5-31.35-28.43-40.71-49.68-43.2-68.69-3.61-35.57-4.73-69.34,9.08-92.43,23.42-69.76,69.31-107.94,146.66-101.92,32.78,27.25,45.63,75.31,42.1,140.46-6.85,41.91.46,72-22.22,110.82-14.75,21.99-55.17,33.15-85.09,33.27h0Z"/>
      <path id="path4571" class="cls-14" d="m352.6,233.7c0,9.52-8.42,17.23-18.81,17.23s-18.81-7.71-18.81-17.23,8.42-17.23,18.81-17.23,18.81,7.71,18.81,17.22h-18.81s18.81,0,18.81,0Z"/>
      <path id="path4440" class="cls-14" d="m251.97,221.5c0,9.76-8.8,17.67-19.66,17.67s-19.66-7.91-19.66-17.67,8.8-17.67,19.66-17.67,19.65,7.91,19.66,17.66h-19.66s19.66,0,19.66,0Z"/>
      <path id="path4573" class="cls-18" d="m349.18,235.31c.41,7.04-5.98,13.03-14.28,13.38s-15.36-5.08-15.77-12.12c-.02-.33-.02-.67-.01-1l15.04.37,15.03-.63Z"/>
      <path id="path3776" class="cls-23" d="m339.78,87.77c-32.9,1.6-65.5,6.14-96.97,22.64-38.49,39.5-67.87,98.02-56.84,153.86,2.71,47.36,35.1,82.63,72.63,100.94,8.8,3.95,27.12,3.29,37.37,1.23,20.44-1.43,34.79-8.95,50.78-20.46,11.95-6.96,34.88-90.3,33.16-111.57,3.58-60.48-10.48-110.2-40.12-146.63h0Zm-127.23,114.44c5.58-.18,11.54.44,16.71,1.09,14.01,1.77,31.87,12.89,33.29,23.46-3.72,9.04-19.83,13.72-37.63,10.5-18.98-3.43-32.67-14.44-30.52-24.69.64-3.07,2.68-5.8,5.66-7.91,3.43-1.51,7.85-2.3,12.5-2.46h0Zm128.02,15.55c12.62.09,24.06,2.89,28.42,8.05.05.06.09.19.13.27-4,10.68-14.4,21.21-34.47,22.64-13.92.99-25.69-6.01-30.39-15.28,2.4-9.22,4.66-12.38,23.55-14.87,4.25-.56,8.56-.85,12.76-.82h0Z"/>
      <path id="path4442" class="cls-18" d="m248.39,223.19c.43,7.22-6.25,13.37-14.92,13.72s-16.05-5.21-16.48-12.43c-.02-.34-.03-.69-.01-1.03l15.71.38,15.7-.65Z"/>
      <g id="path4534" class="cls-12">
        <path class="cls-21" d="m373.61,255.7c-17.74,14.91-18.31,15.85-18.31,15.85"/>
        <path class="cls-25" d="m373.61,255.7c-17.74,14.91-18.31,15.85-18.31,15.85"/>
      </g>
      <path id="path4575" class="cls-14" d="m340.22,234.84c0,3.15-2.56,5.7-5.71,5.7s-5.71-2.55-5.71-5.7,2.56-5.7,5.71-5.7,5.71,2.55,5.71,5.7h-5.71s5.71,0,5.71,0Z"/>
      <path id="path2996" class="cls-4" d="m304.33,450.1c62.2-88.53,80.71-183,68.73-284.26-4.07-38.62-17.36-59.87-32.33-77.94-85.2-4.25-109.61,30.93-136.08,71.32-21.11,33.84-32.17,163.17-4.51,242.01-4.15.6-9.14-1.41-14.29-3.9-2.02,14.79-5.77,27.79-9.77,40.53-10.33-13.21-17.99-28.62-23.31-45.99l-8.27,24.16c-28.74-67.39-26.96-147.29-12.78-232.27,21.88-66.28,45.46-129.1,108.26-162.9,39.7-18.24,83.68-25.43,135.33,8.96,80.56,8.18,105.24,96.64,108.98,218.94,3.85,95.45-34.67,175.68-62.36,248.33,2.99-26.45.29-35.21-1.5-46.76-3.57,16.2-14.76,34.72-23.31,49.89,3.97-15.22,1.87-26.24,0-37.41l-12.78,17.15c5.62-26.58,14.49-54.17-9.02-71.71-5.46-1.5-13.79-1.84-22.93-3.51-11.71,18.22-31.84,30.89-48.05,45.37h0Z"/>
      <path id="path4577" class="cls-20" d="m329.9,221.43c2.23,1.26,2.54,4.2.69,6.56s-5.15,3.26-7.38,2.01-2.54-4.2-.69-6.56,5.15-3.26,7.38-2.01l-3.34,4.29,3.34-4.29Z"/>
      <path id="path4444" class="cls-14" d="m239.02,222.7c0,3.23-2.67,5.84-5.97,5.84s-5.97-2.62-5.97-5.84,2.67-5.84,5.97-5.84,5.97,2.62,5.97,5.84h-5.97s5.97,0,5.97,0Z"/>
      <path id="path3766" class="cls-15" d="m369.5,130.79l-8.51-43.54c9.39-.97,18.78,10.93,28.18,22.05-.87-11.94-3.91-23.88-12.76-35.82,14.93,6.18,28.53,20.58,42.53,32.52-5.21-12.68-12.42-25.35-26.58-38.03l26.58,17.64c-6.33-13.19-17.95-25.02-35.62-35.27l35.09,10.47c-12.13-8.37-20.83-20.29-43.59-17.64-25.19-36.16-57.88-19.56-87.12-18.86,18.47,2.17,42.81,1.9,52.29,7.8-29.18.16-60.27,1.72-85.51,13.24,21.68.22,43.37-3.74,65.05,1.13-19.39,2.18-39.73,5.29-58.17,12.42,14.58-1.18,28.84-2.1,38.5.81-16.3,2.08-27.94,10.61-38.28,20.94,14.73-5.17,29.17-9.95,40.94-11.02-12.62,4.9-23.34,13.06-32.96,23.15,32.71-16.39,48.3-6.75,71.24-8.27,12.02,14.34,23.58,28.89,28.71,46.3h0Z"/>
      <path id="path4458" class="cls-14" d="m230.01,202.06c-11.74-.74-25.17-2.1-32.06,4.41,9.66-2.07,21.18-2.18,33.36.32,8.36,1.71,16.13,4.46,22.84,7.86-5.78-6.95-14.75-12-24.14-12.59h0Z"/>
      <path id="path4446" class="cls-20" d="m228.21,208.96c2.33,1.29,2.65,4.3.72,6.73s-5.38,3.35-7.71,2.06-2.65-4.3-.72-6.73,5.38-3.35,7.71-2.06l-3.49,4.39,3.49-4.39Z"/>
      <path id="path4464" class="cls-14" d="m342.22,215.93c-12.39.49-26.35,1.75-33.18,7.72,9.92-3.07,21.99-4.37,35.01-3.15,8.94.83,17.37,2.76,24.75,5.44-6.76-6.31-16.68-10.4-26.58-10.01h0Z"/>
      <path id="path4579" class="cls-20" d="m335.09,223.11c.83.31,1.14,1.32.67,2.24s-1.51,1.42-2.35,1.11-1.14-1.32-.67-2.24,1.51-1.42,2.35-1.11l-.84,1.67.84-1.67Z"/>
      <path id="path4484" class="cls-17" d="m263.7,199.98c-21.69-19.11-43.74-21.26-64.48-18.06,20.15-8.21,40.56-10.92,65.97,12.63,3.11,5.59,2.89,4.5-1.49,5.43h0Z"/>
      <path id="path4486" class="cls-17" d="m305.97,208.39c25.25-15.19,46.67-14.7,66.2-8-17.89-11.55-32.62-17.71-67.03,1.24-4.23,4.99-3.25,5.09.82,6.76h0Z"/>
      <g id="path4488" class="cls-11">
        <path class="cls-21" d="m198.47,251.29c17.74,14.91,18.31,15.85,18.31,15.85"/>
        <path class="cls-25" d="m198.47,251.29c17.74,14.91,18.31,15.85,18.31,15.85"/>
      </g>
      <path id="path4448" class="cls-20" d="m233.65,210.67c.87.32,1.19,1.35.7,2.3s-1.58,1.46-2.45,1.14-1.19-1.35-.7-2.3,1.58-1.46,2.45-1.14l-.87,1.72.88-1.72Z"/>
      <path id="path4550" class="cls-8" d="m258.98,287.43c4.78,2.56,2.64,6.81,9.3,7.58,5.8.66,9.1-6.49,12.76-5.79,3.68.71,6.06,1.78,5.85,3.58"/>
      <path id="path4566" class="cls-22" d="m272.45,350.24c-20.68-5.21-33.71-23.8-33.38-36.27,2.41-5.09,9.62-1.7,16.29-2.32,11.91-2.44,18.86.52,22.09,1.99,5.45-3.67,17.51-.84,27.51,2.53,7.59,2.55,13.03,2.64,13.03,9.34-14.76,20.54-31.05,26-45.53,24.73h0Z"/>
      <path id="path4569" class="cls-20" d="m272.66,341.83c-17.52-3.3-26.52-14.08-26.25-21.99,2.04-3.22,6.62-1.08,12.28-1.47,10.09-1.55,15.98,1.91,18.72,2.84,4.62-2.32,14.84-2.11,23.31.02,6.43,1.62,8.6,1.04,8.6,5.29-12.51,13.02-24.4,16.11-36.67,15.3h0Z"/>
      <path id="path4611" class="cls-20" d="m241.51,237.33c3.16-1.45,6.47-4.42,8.27-7.4,2.71-4.48,2.97-10.83.66-15.54-.35-.71-.64-1.36-.64-1.43s1.06.31,2.36.85c2.03.85,2.72,1.36,4.94,3.67,2.68,2.79,4.61,5.94,5.02,8.23.27,1.53-.38,2.79-2.64,5.08-3.1,3.14-8.91,5.67-15.46,6.71-3.68.59-4.1.56-2.51-.17h0Z"/>
      <path id="path4613" class="cls-20" d="m217.38,235.26c-11.71-3.71-20.22-10.21-22.56-17.23-.72-2.16-.44-5.68.63-7.86,1.33-2.72,2.37-3.56,4.9-4,5.66-.97,13.92-1.29,20.15-.79l2.52.2-1.91,1.18c-3.74,2.32-6.55,5.83-7.86,9.79-.91,2.76-.91,7.22,0,9.87,1.19,3.46,2.98,6.02,5.91,8.43,1.71,1.4,1.52,1.44-1.78.4h0Z"/>
      <path id="path4615" class="cls-20" d="m319.4,246.34c-5.4-2.06-11.03-6.54-13.93-11.06-1.17-1.83-1.14-2.44.3-6.06,1.26-3.14,3.16-5.29,5.22-5.91,1.56-.47,5.97-1.48,8.23-1.89l1.19-.21-1.51,1.71c-5.55,6.3-5.36,15.82.45,22.01,1.81,1.93,1.82,2.09.04,1.41h0Z"/>
      <path id="path4617" class="cls-20" d="m348.66,244.49c5.43-6.4,5.38-15.54-.12-21.7l-1.62-1.81,1.16.17c3.6.52,8.84,1.53,11.5,2.21,2.87.74,9.01,2.59,9.22,2.79.05.05-.39,1.16-.99,2.47-2.06,4.51-5.86,9.06-10.24,12.29-2.06,1.52-7.59,4.41-9.23,4.82l-.91.23,1.24-1.46h0Z"/>
      <path id="path4619" class="cls-7" d="m243.19,390.08s1.07,39.66-17.2,69.1c24.18-29.98,54.28-54.97,96.76-69.54l-8.6-22.74c-18.35,4.45-35.34,14.07-58.06,2.67-2.47,7.55-1.87,16.29-12.9,20.51h0Z"/>
      <path id="path4621" class="cls-9" d="m237.59,367.33c-33.97,29.87-40.85,38.34-40.85,38.34,14.63-6.03,30.31-19.62,41.71-2.23l5.16-39.23-6.02,3.12Z"/>
      <path id="path4623" class="cls-8" d="m174.48,439.71c-5.5,17.7-29.75,25.35.33,65.83,11.7,13.08,29.52,25.09,29.22,39.3-4.4,19.82-33.16,42.96-36.55,78.09,61.5,1.07,136.34,3.2,197.83.82,3.09-5.99-15.17-29.67-21.93-33.51l45.58-131.96"/>
      <path id="path4631" class="cls-14" d="m242.77,387.59c.03-.84,2.59-19.35,2.69-19.45.08-.08,1.43.52,3.02,1.32,1.59.81,3.26,1.6,3.72,1.77s.84.46.84.66c0,.57-1.29,5.4-1.87,7.04-.9,2.52-1.85,4.07-3.39,5.55-1.5,1.44-5.02,3.63-5,3.12h0Z"/>
      <path id="path4633" class="cls-9" d="m317.29,483.84l-31.26,111.11-72.19,27.78"/>
      <path id="path4635" class="cls-9" d="m343.14,591.47c-4.2,7.28-7.61,20.99-16.56,23.34l-15.07,10.03"/>
      <g id="g4719">
        <path id="path4703" class="cls-5" d="m160.96,468.43c-5.91,8.94-36.73-27.86-55.82-43.98-7.63,15.69-15.27,31.38-36.47,37.04,31.76,27.52,61.45,65.7,95.27,82.56,13.01,10.38,28.27-4.97,43.17-16.2"/>
        <g id="g4657">
          <path id="path4627" class="cls-16" d="m199.87,392.92c-1.47-4.82-2.85-9.56-2.85-9.76,0-.07,1.3-.41,2.88-.76,8.17-1.81,17.38-4.7,23.88-7.49,1.52-.65,2.8-1.14,2.85-1.09.05.05-2.44,2.36-5.53,5.12-3.09,2.76-8.76,8.01-12.61,11.67-3.84,3.66-7.06,6.65-7.14,6.65s-.75-1.95-1.48-4.34h0Z"/>
          <path id="path4629" class="cls-16" d="m234.86,396.06c-2.7-2.13-5.41-3.1-9.34-3.33-4.03-.24-8.17.7-13.37,3.02-1.83.82-3.38,1.44-3.44,1.38-.27-.28,28.26-26.3,30.56-27.86.54-.36,1.07-.57,1.19-.44.22.23-3.09,26.54-3.52,27.88-.24.76-.34.73-2.08-.65h0Z"/>
          <path id="path4653" class="cls-10" d="m240.79,621.68l-13.76-.86,30.5-11.57,30.5-11.57,2.16-6.94c5.59-17.99,29.11-103.38,29.11-105.66,0-1.6-.96-2.39-2.52-2.08-1.94.39-5.98,12.85-17.57,54.13-8.28,29.49-15.69,54.26-16.46,55.04-.78.78-16.82,7.51-35.65,14.95l-34.24,13.53-21.42.56-21.42.56.81-5.1c1.69-10.57,7.41-22.77,20.38-43.5,7.36-11.76,13.79-23.62,14.29-26.35,1.47-8.11-2.72-15.33-19.13-32.99-18.97-20.4-24.62-31.39-23.6-45.88.23-3.33,11.74-24.23,13.8-25.09,1.48-.62,8.25-23.39,9.63-32.43,1.21-7.89,3.97-9.57,8.5-5.18l3.27,3.18,11.6-5.3c6.38-2.92,13.19-5.3,15.14-5.3,4.04,0,12.12,6.44,13.42,10.71,1.72,5.62-4.48,28.6-11.57,42.86-2.54,5.1-2.84,6.91-1.43,8.38,1.42,1.47,5.59-1.95,19.32-15.84,23.35-23.62,43.23-37.1,71.38-48.4l10.69-4.29-3.06-7.9c-4.33-11.18-4.66-12.81-2.77-14.02,2.96-1.9,13.17.85,17.08,4.61l3.79,3.65-4.1,8.97c-6.94,15.18-16.2,31.94-26.31,47.62-9.29,14.41-10.42,17.67-6.09,17.67,2.85,0,31.35-24.17,40.86-34.65l8.04-8.86,9.39,1.04c11.45,1.27,16.04,4.65,20.84,15.35,3.95,8.79,4.55,19.05,1.87,32.07-2.76,13.4-42.76,127.6-49.08,140.12-5.36,10.62-6.77,12.18-17.1,18.9l-11.25,7.33-27.06-.3c-14.88-.16-33.25-.68-40.81-1.16h0Z"/>
          <path id="path4655" class="cls-10" d="m325.59,619.63c8.58-5.7,11.6-9.02,15.58-17.16l3.68-7.52,5.46,5.55c3,3.05,7.34,9.04,9.64,13.31l4.18,7.76h-12.52c-6.89,0-16.8.39-22.04.87l-9.52.87,5.54-3.68h0Z"/>
        </g>
      </g>
      <path id="path4695" class="cls-9" d="m284.75,409.07c27.86-7.4,51.71-3.09,64.21,34.37,6.38-41.76,5.73-73.68-15.79-76.38-10.22,15.86-18.4,32.71-48.94,38.74l.53,3.27Z"/>
      <g id="g4647" class="cls-26">
        <path id="path4643" class="cls-3" d="m324.32,622.82l-1.49-1.64,2.55-1.64c1.4-.9,2.91-1.64,3.34-1.64,1.99,0,7.71-7.45,11.31-14.72l3.87-7.82,3,2.98c6.41,6.36,17.19,23.42,15.75,24.92-.23.24-8.61.6-18.63.81-17.87.38-18.25.35-19.71-1.26h0Z"/>
        <path id="path4645" class="cls-1" d="m279.69,572.45c-15.81-17.59-32.33-33.9-41.34-40.82-10.83-8.32-24.57-14.3-48.85-21.27-1.25-.36-2.21-.71-2.14-.78.28-.27,4.13-.97,6.05-1.1,5.16-.34,9.44.55,16.13,3.35,1.69.71,10.69,4.59,20,8.62,37.09,16.07,41.18,17.78,46.58,19.46,7.49,2.33,8.78,2.63,12.15,2.81,3.5.19,6.16-.4,8.77-1.94,1.03-.61,1.42-.77,1.36-.54-.05.18-2.57,9.13-5.6,19.9-3.03,10.77-5.56,19.78-5.64,20.03-.13.4-.87-.36-7.48-7.72h0Z"/>
      </g>
      <path id="path4666" class="cls-13" d="m267.02,449.01c-15.83,0-28.68,12.68-28.68,28.24,0,2.15.33,4.26.79,6.27,2.01-11.15,8.87-21.92,21.18-27.83,5.2-2.49,10.4-4.24,15.26-5.32-2.69-.82-5.58-1.36-8.55-1.36Z"/>
      <path id="path4675" class="cls-13" d="m182.52,441.19c-9.74,0-17.63,14.11-17.63,31.51s7.89,31.51,17.63,31.51c2.25,0,4.34-.95,6.32-2.32-.98.35-2,.68-3.03.68-8.94,0-16.18-13.86-16.18-30.96,0-14.96,5.52-27.53,12.89-30.42h0Z"/>
      <path id="path4705" class="cls-9" d="m102.15,426.26c-8.44,10.26-11.71,22.9-28.16,29.46-34.14-8.76-48.82-32.87-65.26-58.38-5.07-14.29-1.54-23.72.79-33.83,1.51-2.73,4.11-3.66,6.84-4.36-3.34-3.59-2.04-6.78-2.11-10.09,2.81-1.21,5.61-4.31,8.42.27,1.09-3.8.55-8.24,5.79-10.37,3.76.96,8.21.95,8.42,6.82,4.56-1.85,6.82-5.78,15-4.36,2.17,3.23,2.66-.04,5.65,10.91-2.11,4.56-2.18,8.49.65,15.69"/>
      <path id="path4707" class="cls-9" d="m57.94,367.34c2.5,8.05,7.49,13.52,11.84,19.64-3.12-16.02-.55-20.38,2.5-23.6,3.95-1.31,7.89-1.78,11.84-1.64l6.97,26.87c5.16,12.83,8.42,25.61,4.47,38.19l.26,4.91"/>
      <path id="path4711" class="cls-9" d="m15.84,360.39c.78,17.75,4.83,34.83,18.23,40.51"/>
      <path id="path4713" class="cls-9" d="m23.28,351.13c.99,18.78,8.93,33.95,20.84,42.44"/>
      <path id="path4715" class="cls-9" d="m35.19,345.73c2.17,16.56,5.33,32.28,18.23,39.74"/>
      <path id="path4717" class="cls-2" d="m68.33,451.32c-19.8-6.96-33.17-18.84-50.46-44.86-9.6-14.44-10.72-19.09-7.98-32.99,2.08-10.58,3.36-12.1,4.1-4.89,1.67,16.16,8.63,29.95,16.93,33.51,2,.86,2.38.8,3.28-.47,1.55-2.19,1.26-2.98-1.72-4.64-7.11-3.97-11.92-14.73-13.52-30.28-.46-4.46-.37-5.61.48-5.95.83-.33.63-.99-.89-3.06-2.21-3.01-2.59-6.95-.73-7.69,2.03-.81,3.03.88,3.53,5.98,1.38,13.94,8.53,29.14,17.03,36.22,4.53,3.77,4.73,3.83,6.07,1.71,1.2-1.9,1.16-1.97-4.22-7.55-7.95-8.24-10.89-15.05-14.64-33.87-.39-1.94-.19-4.03.62-6.56,1.12-3.5,1.33-3.7,3.7-3.59,3,.15,5.52,2.25,3.92,3.28-.77.49-.88,1.66-.47,4.79.89,6.82,3.79,17.73,5.99,22.55,2.24,4.89,7.91,11.83,11.11,13.61,1.87,1.04,2.09.98,3.37-.77l1.37-1.88-4.27-4.01c-6.52-6.12-10.48-15.2-12.3-28.21l-.51-3.63,3.58-1.87c7.05-3.68,9.61-3.27,11.7,1.9.76,1.9.95,4.39.66,8.8-.36,5.5-.19,6.74,1.67,11.55,1.14,2.97,2.91,6.78,3.94,8.48,3.65,6.04,13.07,18.42,13.35,17.54.16-.49-.24-4.56-.88-9.05-1.47-10.28-1.47-13.77.01-17.02,1.02-2.22,1.76-2.72,5.23-3.52,2.44-.57,4.29-.66,4.66-.23.33.39,1.83,5.6,3.33,11.58,1.5,5.98,3.86,14.32,5.25,18.52,3.45,10.42,4.46,16.25,3.88,22.51-.26,2.86-.68,7.37-.93,10.02-.33,3.47-.21,4.82.43,4.82,1.22,0-4.83,8.89-8.83,12.97-3.16,3.22-10.04,7.87-11.59,7.83-.41,0-2.75-.72-5.21-1.59h0Z"/>
    </g>
  </g>
</svg>