<?xml version="1.0" encoding="UTF-8"?>
<svg id="svg2" xmlns="http://www.w3.org/2000/svg" xmlns:xlink="http://www.w3.org/1999/xlink" viewBox="0 0 746.2 1054.51">
  <defs>
    <style>
      .cls-1 {
        fill: url(#Dégradé_sans_nom_7);
        opacity: .44;
      }

      .cls-1, .cls-2, .cls-3, .cls-4, .cls-5, .cls-6, .cls-7, .cls-8, .cls-9, .cls-10, .cls-11, .cls-12, .cls-13, .cls-14, .cls-15 {
        stroke-width: 0px;
      }

      .cls-1, .cls-2, .cls-3, .cls-4, .cls-9, .cls-10 {
        isolation: isolate;
      }

      .cls-2 {
        opacity: .87;
      }

      .cls-3 {
        fill: url(#Dégradé_sans_nom_3);
      }

      .cls-3, .cls-4, .cls-10 {
        opacity: .75;
      }

      .cls-4 {
        fill: url(#Dégradé_sans_nom_2);
      }

      .cls-16 {
        stroke-width: 1.25px;
      }

      .cls-16, .cls-17, .cls-18, .cls-19, .cls-20, .cls-21, .cls-22, .cls-23, .cls-24 {
        stroke: #000;
      }

      .cls-16, .cls-22 {
        fill: #c87137;
      }

      .cls-25 {
        fill: #9867e5;
        stroke: url(#Dégradé_sans_nom-2);
      }

      .cls-25, .cls-26 {
        stroke-width: 2.11px;
      }

      .cls-5 {
        fill: rgba(205, 135, 222, .78);
      }

      .cls-27 {
        stroke: url(#Dégradé_sans_nom_6);
      }

      .cls-27, .cls-23, .cls-24 {
        fill: none;
      }

      .cls-6 {
        fill: url(#Dégradé_sans_nom_8);
      }

      .cls-7 {
        fill: url(#Dégradé_sans_nom_4);
      }

      .cls-8 {
        fill: url(#Dégradé_sans_nom_5);
      }

      .cls-9 {
        opacity: .66;
      }

      .cls-9, .cls-21, .cls-15 {
        fill: #fff;
      }

      .cls-18 {
        fill: #2b1100;
      }

      .cls-19 {
        fill: #0e0500;
      }

      .cls-20 {
        fill: #d35f5f;
      }

      .cls-26 {
        fill: #b62b4a;
        stroke: url(#Dégradé_sans_nom);
      }

      .cls-10 {
        fill: #a05a2c;
      }

      .cls-22 {
        stroke-width: .97px;
      }

      .cls-23 {
        stroke-width: .86px;
      }

      .cls-12 {
        fill: #784421;
      }

      .cls-13 {
        fill: #b06331;
      }

      .cls-14 {
        fill: #aa602f;
      }
    </style>
    <linearGradient id="Dégradé_sans_nom" data-name="Dégradé sans nom" x1="357.69" y1="253.06" x2="380.77" y2="663.73" gradientUnits="userSpaceOnUse">
      <stop offset="0" stop-color="#000"/>
      <stop offset="1" stop-color="#000" stop-opacity="0"/>
    </linearGradient>
    <linearGradient id="Dégradé_sans_nom-2" data-name="Dégradé sans nom" x1="338.24" y1="436.97" x2="345.49" y2="307.97" gradientTransform="translate(0 1052) scale(1 -1)" xlink:href="#Dégradé_sans_nom"/>
    <linearGradient id="Dégradé_sans_nom_2" data-name="Dégradé sans nom 2" x1="377.24" y1="743.2" x2="397.56" y2="665.02" gradientTransform="translate(0 1052) scale(1 -1)" gradientUnits="userSpaceOnUse">
      <stop offset="0" stop-color="#a05a2c"/>
      <stop offset="1" stop-color="#a05a2c" stop-opacity="0"/>
    </linearGradient>
    <linearGradient id="Dégradé_sans_nom_3" data-name="Dégradé sans nom 3" x1="445.67" y1="727.2" x2="505.12" y2="727.2" gradientTransform="translate(0 1052) scale(1 -1)" gradientUnits="userSpaceOnUse">
      <stop offset="0" stop-color="#a05a2c"/>
      <stop offset="1" stop-color="#a05a2c" stop-opacity="0"/>
    </linearGradient>
    <linearGradient id="Dégradé_sans_nom_4" data-name="Dégradé sans nom 4" x1="397.42" y1="656.84" x2="387.8" y2="630.23" gradientTransform="translate(0 1052) scale(1 -1)" gradientUnits="userSpaceOnUse">
      <stop offset="0" stop-color="#aa602f"/>
      <stop offset="1" stop-color="#aa602f" stop-opacity="0"/>
    </linearGradient>
    <linearGradient id="Dégradé_sans_nom_5" data-name="Dégradé sans nom 5" x1="451.72" y1="657.87" x2="454.96" y2="640.34" gradientTransform="translate(0 1052) scale(1 -1)" gradientUnits="userSpaceOnUse">
      <stop offset="0" stop-color="#a05a2c"/>
      <stop offset="1" stop-color="#a05a2c" stop-opacity="0"/>
    </linearGradient>
    <linearGradient id="Dégradé_sans_nom_6" data-name="Dégradé sans nom 6" x1="391.07" y1="695.76" x2="456.5" y2="695.76" gradientTransform="translate(0 1052) scale(1 -1)" gradientUnits="userSpaceOnUse">
      <stop offset="0" stop-color="#000"/>
      <stop offset="1" stop-color="#000" stop-opacity="0"/>
    </linearGradient>
    <linearGradient id="Dégradé_sans_nom_7" data-name="Dégradé sans nom 7" x1="393.43" y1="288.85" x2="368.86" y2="163.54" gradientTransform="translate(0 1052) scale(1 -1)" gradientUnits="userSpaceOnUse">
      <stop offset="0" stop-color="green"/>
      <stop offset="1" stop-color="green" stop-opacity="0"/>
    </linearGradient>
    <linearGradient id="Dégradé_sans_nom_8" data-name="Dégradé sans nom 8" x1="542.59" y1="252.22" x2="613.23" y2="564.7" gradientTransform="translate(0 1052) scale(1 -1)" gradientUnits="userSpaceOnUse">
      <stop offset="0" stop-color="#aa602f"/>
      <stop offset="1" stop-color="#aa602f" stop-opacity="0"/>
    </linearGradient>
  </defs>
  <g id="_base_" data-name="&amp;lt;base&amp;gt;">
    <rect class="cls-26" x="1.05" y="1.05" width="744.09" height="1052.4"/>
  </g>
  <g id="layer2">
    <g id="g4079">
      <path id="path4075" class="cls-17" d="m506.92,197.16c-7.15-9.83-17.88-8.05-20.56-20.56-2.68-12.52-.89-16.09-13.41-20.56-12.52-4.47-16.99-.89-25.03-6.26-8.05-5.36.89-9.83-14.3-4.47-15.2,5.36-9.83,8.94-22.35,2.68s-6.26-12.52-22.35-.89c-16.09,11.62-19.67,7.15-33.98,5.36-14.3-1.79-11.62.89-21.46,8.94-9.83,8.05,2.68-7.15-16.09,3.58s-8.05,9.83-23.25,22.35-21.46-4.47-28.61,19.67c-7.15,24.14,0,15.2-6.26,37.55s-9.83,13.41-6.26,28.61,4.47-.89,1.79,19.67c-2.68,20.56,3.58,52.75,2.68,64.37-.89,11.62,2.68,5.36-6.26,17.88s-8.05,7.15-9.83,18.77c-1.79,11.62,8.05,8.94-7.15,12.52s-15.2,0-19.67,11.62c-4.47,11.62,8.94,13.41-10.73,11.62-19.67-1.79-24.14-7.15-25.03,3.58-.89,10.73,12.52,9.83,2.68,15.2-9.83,5.36-16.09-2.68-20.56,11.62-4.47,14.3,5.36,9.83-.89,18.77-6.26,8.94-19.67,14.3-9.83,16.99,9.83,2.68,10.73-12.52,19.67-4.47,8.94,8.05,16.09.89,4.47,14.3s-10.73,6.26-8.05,16.09c2.68,9.83-4.47-8.05-4.47,15.2s9.83,8.05,5.36,22.35-25.03,7.15-6.26,21.46c18.77,14.3,9.83.89,34.87,13.41s4.47,15.2,38.44,11.62c33.98-3.58,42.92,8.05,51.86-16.09,8.94-24.14-8.94-60.8,21.46-47.39,30.4,13.41,17.88-9.83,37.55,2.68s6.26,29.5,25.93,21.46c19.67-8.05,17.88-36.66,40.23-14.3,22.35,22.35,27.72,23.25,33.08,11.62,5.36-11.62-6.26-15.2,9.83-18.77,16.09-3.58,27.72,5.36,15.2-8.94s-28.61-8.05-22.35-22.35c6.26-14.3,14.3-11.62,3.58-20.56-10.73-8.94-27.72.89-15.2-17.88s8.94-.89,16.99-30.4c8.05-29.5,4.47-24.14,3.58-39.34-.89-15.2-18.77-16.99-.89-33.08,17.88-16.09,16.09-30.4,15.2-37.55-.89-7.15-11.62-17.88,0-27.72,11.62-9.83,6.26-2.68,18.77-13.41,12.52-10.73,16.76,36.78,27.49,9.06s4.84-40.95,6.63-54.36,7-22.65-2.83-27.12c-9.83-4.47-12.52,2.68-10.73-7.15,1.79-9.83-2.68-16.99-2.68-16.99h0Z"/>
      <path id="path4077" class="cls-11" d="m499.7,200.15c-6.97-9.75-11.11.61-13.72-11.8s-.87-15.95-13.08-20.39c-12.2-4.43-16.56-.89-24.41-6.2-7.84-5.32,1.78-15.17-13.04-9.85-14.82,5.32-10.49,14.28-22.7,8.08-12.2-6.2-3.84-19.18-19.53-7.66-15.69,11.52-16.92,9.35-30.86,7.58-13.95-1.77-14.95.89-24.53,8.86-9.59,7.98-1.45-7.99-19.76,2.64-18.3,10.64-6.04,9.75-20.86,22.16s-19.56-7.59-26.54,16.34c-6.97,23.93,0,23.65-6.1,45.81s-9.59,13.29-6.1,28.36c3.49,15.07,4.36-.89,1.74,19.5s3.49,52.29,2.61,63.82c-.87,11.52-.1-.55-8.81,11.86s-8.9,13.01-6.88,24.49c1.87,10.62,5.59,4.35-9.23,7.89s-19-1.19-16.92,16.04c1.48,12.23,11.88,8.78-7.3,7.01-19.18-1.77-29.86-8.9-30.73,1.74-.87,10.64,11.75,10.2,2.16,15.52-9.59,5.32-14.79-4.01-19.14,10.17-4.36,14.18,4.78,7.94-1.32,16.81-6.1,8.86-20.74,17.67-10.94,15.94,10.49-1.86,27.63-8.8,33.18-.82,6.75,9.7.33,1.79-11,15.08-11.33,13.3-10.46,21.11-7.84,30.86,2.62,9.75,1.51-17.46,1.51,5.58s10.04-.61,5.68,13.58c-4.36,14.18-28.92,8.9-10.62,23.08s13.65,7.66,38.06,20.07c24.41,12.41,4.36,15.07,37.48,11.52,33.12-3.55,41.84,7.98,50.56-15.95,8.72-23.93-8.72-60.27,20.92-46.98s17.43-9.75,36.61,2.66,6.1,29.25,25.28,21.27c19.18-7.98,17.43-36.34,39.22-14.18s27.02,23.04,32.25,11.52c5.23-11.52-6.1-15.07,9.59-18.61,15.69-3.55,27.02,5.32,14.82-8.86s-8.92-12.49-2.82-26.68c6.1-14.18,2.65-8.81-7.81-17.68-10.46-8.86-25.21-2.73-13.01-21.34,12.2-18.61-.77,4.53,7.07-24.71,7.84-29.25,4.36-23.93,3.49-39-.87-15.07-18.3-16.84-.87-32.8s15.69-30.14,14.82-37.23c-.87-7.09-11.33-17.73,0-27.48s6.1-2.66,18.3-13.29c12.2-10.64,16.52,13.6,26.98-13.88,10.46-27.48-.49-29.79,1.25-43.08s5.99-18.08-3.59-22.51c-9.59-4.43-11.75,4.01-10.01-5.74,1.74-9.75-3.52-19.1-3.52-19.1h0Z"/>
    </g>
    <path id="path4444" class="cls-11" d="m275.01,394.94c-9.83,6.14-15.97,18.43-18.43,27.03-2.46,8.6-6.14,12.29-11.06,15.97-4.91,3.69-13.51,6.14-13.51,14.74s4.91,18.43-4.91,18.43-19.66-12.29-15.97,2.46c3.69,14.74,15.97,36.86,8.6,43-7.37,6.14-13.51,0-11.06,13.51s1.23,14.74,0,25.8-2.46,12.28,3.69,17.2-8.6,8.6,8.6,12.28,7.37,6.14,40.54,6.14,54.05-3.69,66.34-2.46,62.65,1.23,74.94,1.23,40.54-3.69,46.68-9.83c6.14-6.14,11.06,9.83,17.2-13.51,6.14-23.34,0-29.48-1.23-35.63-1.23-6.14-11.06-17.2-13.51-22.11s-6.14-6.14-4.91-18.43c1.23-12.29-17.2-24.57-25.8-36.86-8.6-12.29-11.06-38.08-17.2-47.91-6.14-9.83-50.37-22.11-58.97-23.34-8.6-1.23-43-4.91-43-4.91l-27.03,17.2Z"/>
    <path id="path4073" class="cls-25" d="m575.74,645.87s-37.07-31.73-50.15-53.26-37.07-14.73-37.07-14.73c0,0-8.52-14.96-23.78-22.9-15.26-7.93-15.46-9.97-32.91-9.97s-116.66-14.73-133.01-12.47c-16.35,2.27-56.69,7.93-63.23,13.6-6.54,5.67-8.72,14.73-6.54,21.53,2.18,6.8-68.85,35.6-75.39,56-6.54,20.4-59.71,113.51-64.07,123.71-4.36,10.2-32.34,53.94-32.34,53.94,0,0,17.88-9.19,64.76-8.06,46.88,1.13,57.69-8.46,59.88,16.47,2.18,24.93-.31,16.42,58.07,31.04,52.28,13.09,86.07,27.99,128.59,6.51,38-19.2,70.39,10.19,88.92,16.99,18.53,6.8,118.23-22.23,118.23-22.23,0,0,64.11-45.93,65.2-64.06,1.09-18.13-65.16-132.12-65.16-132.12h0Z"/>
    <path id="path4071" class="cls-22" d="m507.19,443.61s-24.55-27.64-2.72-47.65c21.83-20.01,17.3,20.37,28.18,37.84s21.21,36.41,21.21,36.41l-46.66-26.6Z"/>
    <path id="path3297" class="cls-16" d="m459.69,564.28l-29.46-9.07s-6.48-52.64.31-51.61c6.79,1.03,33.68-31.11,48.42-50.38s20.73-30.68,22.99-46.54c2.27-15.86,9.87-27.11,8.74-33.91-1.13-6.8-2.27-16.56-4.54-23.36-2.27-6.8.7-9.83,2.97-21.16s.67-22.77.67-22.77c0,0-.58-40.56-7.39-58.05-2.4-6.16-2.79-23.87-11.86-23.87s-39.23,21.58-56.23,22.71c-17,1.13-57.34-12.88-69.81-10.61-12.46,2.27-24.93,2.27-29.46,20.4-4.53,18.13-15.86,61.19-20.4,65.73-4.53,4.53-9.07,7.93-9.07,7.93,0,0-9.07-24.93-22.66-19.26s-28.33,9.07-28.33,29.46,5.67,21.53,7.93,35.13,16.03,40.16,28.5,37.89c12.46-2.27,8.9-.49,8.9-.49,0,0,4.59,91.87.06,108.87-4.53,17-9.58,15.86-26.58,26.06-17,10.2-32.41,10.11-32.41,10.11,0,0,83.86,105.39,125.78,109.92,41.93,4.53,92.92-103.12,92.92-103.12h0Z"/>
    <path id="path4120" class="cls-19" d="m453.04,310.58s19.35-12.41,33.22-14.05c13.87-1.64,21.81,8.85,21.81,8.85,0,0-7.11-13.32-12.22-14.6-5.11-1.28-17.89,1.92-22.36,3.19s-17.25,11.5-17.25,11.5l-3.2,5.11Z"/>
    <path id="path4122" class="cls-24" d="m469.65,281.83s5.11-10.22,19.17-5.11"/>
    <g id="g4151">
      <g id="g4128">
        <path id="path4126" class="cls-17" d="m344.72,330.51s8.86-7.39,28.93-11.38c6.17-1.23,23.94,1.54,31.4,12.18,4.4,6.28,5.05,1.38,5.05,3.67,0,1.47-.46,2.07-3.21,2.07s-6.26-.45-11.48,1.15c-6.82,2.09-27.08,2.83-33.83.71-8.55-2.7-16.86-8.39-16.86-8.39h0Z"/>
      </g>
      <g id="g4131">
        <path id="path4133" class="cls-21" d="m349.15,332.2s9.66-5.84,29.73-9.46c6.17-1.11,14.81,1.59,26.18,10.82,5.71,4.64,5.05,1.25,5.05,3.33,0,1.33-.46,1.87-3.21,1.87s-6.26-.41-11.48,1.04c-6.82,1.89-12.69,1.69-16.76,1.5-8.96-.42-29.51-9.11-29.51-9.11h0Z"/>
      </g>
      <path id="path4135" class="cls-17" d="m391.97,331.19c0,5.26-4.93,9.53-11.02,9.53s-11.02-4.27-11.02-9.53,4.93-9.53,11.02-9.53,11.02,4.27,11.02,9.53Z"/>
      <path id="path4137" class="cls-2" d="m385.3,331.08c0,2.41-1.95,4.36-4.36,4.36s-4.36-1.95-4.36-4.36,1.95-4.36,4.36-4.36,4.36,1.95,4.36,4.36Z"/>
      <path id="path4147" class="cls-15" d="m383.02,330.85c0,1.01-.77,1.84-1.72,1.84s-1.72-.82-1.72-1.84.77-1.84,1.72-1.84,1.72.82,1.72,1.84Z"/>
      <path id="path4149" class="cls-9" d="m378.42,329.24c0,1.01-.77,1.84-1.72,1.84s-1.72-.82-1.72-1.84.77-1.84,1.72-1.84,1.72.82,1.72,1.84Z"/>
    </g>
    <path id="path4230" class="cls-4" d="m419.95,307.07c3.42,2.89,5.26,19.18,5.26,19.18l-3.15,50.72-3.15,6.57.26,8.67-9.72-11.3-8.93-.79s8.93-7.88,8.93-8.93,2.89-15.51,2.89-15.51l.26-8.67-9.99,1.31-15.24,2.37h-6.31l28.38-8.67,2.1-6.57-7.1-12.35-15.24-9.46-26.28-1.31-27.53,6.41,11.12-15.42s9.05-3.07,12.2-3.34c3.15-.26,22.86,6.04,22.86,6.04,0,0,16.29,3.94,17.61,4.47s9.99.79,9.99.79l10.78-4.2Z"/>
    <path id="path4234" class="cls-3" d="m470.29,355.46s-23.07.37-24.38-4.83c-1.31-5.2,3.05-34.19,5.22-37.54,2.18-3.34,37.87-18.58,43.1-18.95,5.22-.37,23.07,8.18,20.9,7.43-2.18-.74-29.6,4.09-31.78,7.06-2.18,2.97,1.74,13.38,1.74,13.38,0,0-16.98,1.86-23.07,7.06-6.09,5.2-9.58,11.89-9.58,11.89l8.71,7.06,9.14,7.43Z"/>
    <path id="path4236" class="cls-10" d="m393.15,392.37c1.86,5.57,17.3,14.45,22.88,14.45s4.66,5.02,7.26,8.37,8.02,1.26,9.13-1.72.37-6.02,2.6-7.88c2.23-1.86,4.21-2.19,6.07-2.56,1.86-.37,1.93-.68,6.69-2.97,11.47-5.53,7.06-7.8,7.06-7.8,0,0-3.37,15.23-10.28-4.38-2.66-7.54.4,6.2-3.69,8.05-4.09,1.86-13.79.56-13.79.56,0,0-7.92-3.87-10.15-3.5-2.23.37-6.86,2.92-10.58,1.8-3.72-1.11-13.2-2.42-13.2-2.42h0Z"/>
    <path id="path4238" class="cls-10" d="m403.92,443.75c-.74,1.86,1.49,6.32,2.97,8.55s5.95,7.43,5.95,7.43l-13.38,4.46s2.6,5.57,7.06,2.97,11.89-2.97,16.72-3.34c4.83-.37,7.43-.74,10.78,2.6,3.34,3.34,5.95,7.06,6.32,9.29.37,2.23,3.34,5.95,4.09-2.23s-1.11-10.41,3.34-12.64c4.46-2.23,2.97-.37,7.8-.74s9.66-1.11,11.52-1.49c1.86-.37,3.34,5.57,3.34,5.57l17.84-22.67s-18.21,6.32-19.7,5.95c-1.49-.37-24.53,2.97-24.53,2.97l-13.01,2.6c-9.83.79-14.87-2.23-14.87-2.23l-12.26-7.06Z"/>
    <path id="path4240" class="cls-10" d="m268.05,331.25s-5.26,5.78-2.1,24.18,14.72,16.29,15.24,13.67c.53-2.63,0-11.04,2.1-12.09,2.1-1.05,5.26-.53,5.26-.53l2.1-6.31,4.2-2.1-7.36-18.4-10.51-7.36-8.93,8.94Z"/>
    <g id="g4114">
      <path id="path4110" class="cls-23" d="m268.34,330.83s5.84-10.84,13.28-5.7c7.43,5.13,13.81,18.82,12.74,22.24-1.06,3.42-5.84,0-5.84,10.27s6.9,11.4,7.43,15.97c.53,4.56-9.03,7.41-9.03,7.41"/>
      <path id="path4112" class="cls-24" d="m275.44,357.95s-8.31-19.8,10.22-27.47"/>
    </g>
    <path id="path4228" class="cls-24" d="m405.75,442.94s10.25,15.51,30.75,8.93"/>
    <path id="path4242" class="cls-14" d="m426.25,533.08c-24.18-3.15-58.87-10.51-60.97-17.34-2.1-6.83-37.84-57.29-37.84-57.29l-9.99-27.33s15.24,25.23,21.55,31.54,33.11,25.23,33.11,25.23l48.35,13.67h6.83l-1.05,31.54Z"/>
    <path id="path4222" class="cls-24" d="m312.71,418.55s20.61,63.49,84.92,77.5c64.31,14.02,23.91,4.95,23.91,4.95"/>
    <path id="path4118" class="cls-18" d="m349.52,302.15s7.98-2.31,14.68-4.77c6.71-2.46,37.72,13.26,42.31,12.49,4.59-.77,13.2-3.01,13.2-3.01,0,0-7.84,6.83-11.72,7.04-3.88.21-33.35-12.12-37.23-11.92-3.88.21-21.24.18-21.24.18h0Z"/>
    <path id="path4264" class="cls-12" d="m422.19,397.92s-2.46,9.02,1.37,13.95c3.83,4.92,6.29,2.73,6.29,2.73,0,0-3.83-4.1-3.01-7.11.82-3.01,2.46-6.84,2.46-6.84l-7.11-2.73Z"/>
    <path id="path4266" class="cls-7" d="m391.56,387.83s-14.14,49.4-9.19,40.61c6.15-10.93,22.43-30.17,22.43-30.17l-13.24-10.45Z"/>
    <path id="path4268" class="cls-8" d="m445.41,393.36l6.92,21.2,4.11-6.92-1.3-12.55,1.51-7.57-3.89,5.62-7.36.22Z"/>
    <path id="path4124" class="cls-27" d="m450.49,311.94s-2.9,12.8-3.83,21.72c-6.29,60.12,14.05,45.36,8.31,59.41-1.21,2.96-8.31,1.28-11.5,3.19-3.19,1.92-1.28,3.19-10.22,3.83-8.94.64-12.14-6.39-19.8-4.47-7.67,1.92-7.73,4.76-15.97.64-5.11-2.56-10.22-10.86,0-14.69"/>
    <path id="path4438" class="cls-14" d="m275.62,565.08c18.43,3.07,46.07,14.13,55.28,14.74,9.21.61,7.37,1.84,18.43.61s31.33-.61,12.9-4.3c-18.43-3.69-15.36-4.3-25.18-7.99s-17.81-6.14-23.34-6.14-38.08,3.07-38.08,3.07h0Z"/>
    <path id="path4440" class="cls-14" d="m429.18,560.78c-7.37,2.46-18.43,8.6-22.11,10.44-3.69,1.84-24.57,7.37-24.57,7.37,0,0,14.74,6.14,27.64.61s20.27-5.53,25.18-5.53,15.36-1.23,15.36-1.23c0,0,7.37-5.53,4.3-5.53s-25.8-6.14-25.8-6.14h0Z"/>
    <path id="path4446" class="cls-1" d="m191.47,826.14s17.2-60.2,20.88-83.54c3.69-23.34-12.29-54.05-4.91-54.05s15.97,33.17,29.48,51.6c13.51,18.43-4.91,25.8,15.97,50.37,17.45,20.53,43,52.83,66.34,45.45,23.34-7.37,64.11,1.53,73.71-31.94,10.33-36.04,56.32,7.37,114.25,22.11,70.77,20.22,68.45-11.32,77.39-38.08,0,0,11.06,36.85-20.88,62.65-12.75,10.3-249.39,14.74-249.39,14.74l-92.14,6.14-30.71-45.45Z"/>
    <g id="g4201">
      <g id="g4163">
        <path id="path4165" class="cls-17" d="m499.79,336.99s12.63-11.79-8.36-15.78c-6.46-1.23-26.87.63-34.67,11.27-4.61,6.28-5.28,1.38-5.28,3.67,0,1.47.48,2.07,3.36,2.07s6.09.23,11.55,1.83c7.14,2.09,21.75,3.71,29.03,2.52,15.07-2.47,4.38-5.58,4.38-5.58h0Z"/>
      </g>
      <g id="g4167">
        <path id="path4169" class="cls-21" d="m500.31,337.32s1.55-3.22-.28-7.53c-1.6-3.78-8.67-6.07-17.09-6.06-6.46,0-14.55,1.77-26.27,11-5.89,4.64-5.21,1.25-5.21,3.33,0,1.33.47,1.87,3.32,1.87s6.46-.41,11.84,1.04c7.04,1.89,13.09,1.69,17.28,1.5,9.24-.42,16.41-5.16,16.41-5.16h0Z"/>
      </g>
      <path id="path4171" class="cls-17" d="m470.16,332.36c0,5.26,5.09,9.53,11.37,9.53s11.37-4.27,11.37-9.53-5.09-9.53-11.37-9.53-11.37,4.27-11.37,9.53Z"/>
      <path id="path4173" class="cls-2" d="m477.03,332.25c0,2.41,2.01,4.36,4.5,4.36s4.5-1.95,4.5-4.36-2.01-4.36-4.5-4.36-4.5,1.95-4.5,4.36Z"/>
      <path id="path4175" class="cls-15" d="m479.41,332.01c0,1.01.8,1.84,1.78,1.84s1.78-.82,1.78-1.84-.8-1.84-1.78-1.84-1.78.82-1.78,1.84Z"/>
      <path id="path4177" class="cls-9" d="m475.7,328.87c0,1.01.8,1.84,1.78,1.84s1.78-.82,1.78-1.84-.8-1.84-1.78-1.84-1.78.82-1.78,1.84Z"/>
    </g>
    <path id="path4536" class="cls-13" d="m430.47,452.17s21.02-.3,33.27-5.72c15.86-7.02,35.09-12.48,35.09-12.48l4.68,9.1,7.02,6.24,10.66,2.86-24.7,6.5,9.1-4.16-12.74-15.86-19.5,8.58-15.34,4.94-20.02,2.86-7.54-2.86Z"/>
    <path id="path4616" class="cls-5" d="m256.61,603.51l-29.08-15.3s52.03,70.39,94.88,88.76-65.8-73.45-65.8-73.45h0Z"/>
    <path id="path180" class="cls-20" d="m391.54,430.65l25.29-7.22s8.09,5.69,11.56,5.78c4.42.11,12.64-3.97,12.64-3.97l17.34,6.86s-19.87,2.17-22.76,2.89c-2.89.72-6.86,2.53-12.64,1.44-5.78-1.08-13.37-2.17-13.37-2.17l-18.06-3.61Z"/>
    <path id="path4069" class="cls-16" d="m565.43,846.51s8.83,30.07,30.69,34.29c21.86,4.22,54.58,17.93,61.74,6.09,7.16-11.84,34.65-127.25,17-153.32-17.65-26.08-79.19-182.1-79.19-182.1l-30.4-80.88s-43.96-62.93-48.63-64.89c-4.67-1.96-37.08,5.89-42.36,11.92-5.28,6.03-21.03,8.22-25.33,11.92-4.3,3.69-27.51,13.2-27.51,13.2,0,0,.76,11.31,19,12.36,18.24,1.05,52.39-14.86,52.39-14.86,0,0,14.63,14.92,10.1,15.22-4.52.3-47.11,25.86-51.17,32.95-4.07,7.09-8,19.24.46,23.82,5.33,2.89-1.21-1.05.76,11.31,1.96,12.36,15.81,17.73,15.81,17.73,0,0-4.8,11.06,1.38,18.6,6.18,7.54,36.26-1.29,42.59,8.51,6.33,9.8,9.35,3.92,12.44-.83,3.09-4.75,5.28,11,20.36,15.67,15.08,4.67,16.77,148.79,16.77,148.79l-1.13.08s22.77,34.82,24.89,66.48c2.12,31.66-20.64,47.95-20.64,47.95h0Z"/>
    <path id="path4524" class="cls-6" d="m567.09,845.68s8.83,30.07,30.69,34.29c21.86,4.22,63.49,15.44,52.59,6.92-65.14-50.9-42.64-110.63-60.29-136.7-17.64-26.08,4.77-133.47,4.77-133.47-27.77-72.02-61.28-56.21-92.83-69.49,1.96,12.36-30.04-2.97-30.04-2.97,0,0-6.33,7.24-.15,14.77,6.18,7.54,36.26-1.29,42.59,8.51,6.33,9.8,9.35,3.92,12.44-.83,3.09-4.75,5.28,11,20.36,15.67,15.08,4.67,16.77,148.79,16.77,148.79l-1.13.08s22.77,34.82,24.89,66.48c2.12,31.66-20.64,47.95-20.64,47.95h0Z"/>
    <path id="path4580" class="cls-24" d="m505.24,519.39s-31.37,17.21-35.96,22.19"/>
    <path id="path4582" class="cls-24" d="m513.65,482.66s-55.47,27.54-60.06,32.52"/>
    <path id="path4586" class="cls-24" d="m525.89,566.06s-16.45-6.89-19.51-12.24"/>
    <path id="path4584" class="cls-24" d="m522.07,546.55s-11.48,5.36-22.57,9.18"/>
    <path id="path4588" class="cls-24" d="m546.9,583.5s10.05,2.68,32.78,3.77"/>
  </g>
</svg>