<?xml version="1.0" encoding="UTF-8"?>
<svg id="Layer_1" data-name="Layer 1" xmlns="http://www.w3.org/2000/svg" viewBox="0 0 1479 2001">
  <defs>
    <style>
      .cls-1, .cls-2 {
        stroke: #000;
      }

      .cls-1, .cls-3, .cls-4, .cls-5, .cls-6, .cls-7, .cls-8, .cls-9, .cls-10, .cls-11, .cls-12, .cls-13, .cls-14, .cls-15, .cls-16, .cls-17, .cls-18, .cls-19, .cls-20, .cls-21, .cls-22, .cls-23, .cls-24, .cls-25, .cls-26, .cls-27, .cls-28, .cls-29, .cls-30, .cls-31, .cls-32, .cls-33, .cls-34, .cls-35, .cls-36, .cls-37, .cls-38 {
        stroke-width: .09px;
      }

      .cls-2 {
        fill: #b62b4a;
        stroke-miterlimit: 10;
      }

      .cls-3 {
        fill: #f9f9f9;
        stroke: #f9f9f9;
      }

      .cls-4 {
        fill: #333;
        stroke: #333;
      }

      .cls-5 {
        fill: #bb6a35;
        stroke: #bb6a35;
      }

      .cls-6 {
        fill: #b87142;
        stroke: #b87142;
      }

      .cls-7 {
        fill: #e6e6e6;
        stroke: #e6e6e6;
      }

      .cls-8 {
        fill: #dd8383;
        stroke: #dd8383;
      }

      .cls-9 {
        fill: #ca3e3e;
        stroke: #ca3e3e;
      }

      .cls-10 {
        fill: #dbe2e3;
        stroke: #dbe2e3;
      }

      .cls-11 {
        fill: #a55d2d;
        stroke: #a55d2d;
      }

      .cls-12 {
        fill: #bd7544;
        stroke: #bd7544;
      }

      .cls-13 {
        fill: #bd6a33;
        stroke: #bd6a33;
      }

      .cls-14 {
        fill: #ab673b;
        stroke: #ab673b;
      }

      .cls-15 {
        fill: #be6d32;
        stroke: #be6d32;
      }

      .cls-16 {
        fill: #ac693c;
        stroke: #ac693c;
      }

      .cls-17 {
        fill: #c07745;
        stroke: #c07745;
      }

      .cls-18 {
        fill: #ac683b;
        stroke: #ac683b;
      }

      .cls-19 {
        fill: #d35f5f;
        stroke: #d35f5f;
      }

      .cls-20 {
        fill: #cd7f4b;
        stroke: #cd7f4b;
      }

      .cls-21 {
        fill: #cd804b;
        stroke: #cd804b;
      }

      .cls-22 {
        fill: #ccc;
        stroke: #ccc;
      }

      .cls-23 {
        fill: #d46363;
        stroke: #d46363;
      }

      .cls-24 {
        fill: #cd4b4b;
        stroke: #cd4b4b;
      }

      .cls-25 {
        fill: #d15858;
        stroke: #d15858;
      }

      .cls-26 {
        fill: #c83737;
        stroke: #c83737;
      }

      .cls-27 {
        fill: #c57a48;
        stroke: #c57a48;
      }

      .cls-28 {
        fill: #c67a48;
        stroke: #c67a48;
      }

      .cls-29 {
        fill: #b26d3f;
        stroke: #b26d3f;
      }

      .cls-30 {
        fill: #ce7f4a;
        stroke: #ce7f4a;
      }

      .cls-31 {
        fill: #cf5050;
        stroke: #cf5050;
      }

      .cls-32 {
        fill: #bd6b33;
        stroke: #bd6b33;
      }

      .cls-33 {
        fill: #502d16;
        stroke: #502d16;
      }

      .cls-34 {
        fill: #782121;
        stroke: #782121;
      }

      .cls-35 {
        fill: #784421;
        stroke: #784421;
      }

      .cls-36 {
        fill: #374548;
        stroke: #374548;
      }

      .cls-37 {
        fill: #1c2224;
        stroke: #1c2224;
      }

      .cls-38 {
        fill: #1a1a1a;
        stroke: #1a1a1a;
      }
    </style>
  </defs>
  <g id="_1a1a1aff" data-name="#1a1a1aff">
    <path class="cls-38" d="m549.95,71.75c66.31-13.16,134.04-17.2,201.52-18.18,36.72-.45,73.6-.31,110.07,4.48,20.77,2.91,41.44,7.18,61.19,14.31,20.88,7.38,40.74,17.98,57.81,32.16,12.57,10.48,24.89,21.26,37.23,32,29.66-4.71,59.81-8.63,89.86-5.7,11.47,1.27,22.55,4.68,33.8,7.15,28.47,7.43,56.86,16.48,82.53,31.12,17.1,9.83,32.75,22.63,44.23,38.78,11.49,15.8,18.64,34.24,24.07,52.87,5.52,20.69,11.03,41.5,12.89,62.91,2.94,27.54,1.55,55.31-1.34,82.79-2.91,23.45-6.82,46.8-12.58,69.73-9.67-16.83-22.4-31.77-36.75-44.79-10.5-9.87-22.87-17.59-32.77-28.12-14.97-15.51-24.88-35.25-31.2-55.7-6.71-20.69-10.41-42.46-19.83-62.2-6.75-14.59-17.72-27.36-31.87-35.18-16.88-9.96-36.53-12.81-55.25-17.49-22.03-4.49-44.62-7.77-67.14-5.85-11.66,1.17-23.55,3.91-33.39,10.55-8.37-15.03-22.54-25.61-36.82-34.62-41.57-24.65-88.98-41.48-137.74-41.47-25.24-.34-50.39,3.28-74.9,9.14-16.93,3.44-32.89,11.1-46.44,21.76-15.51,11.31-29.37,24.67-44.58,36.36-14.63,11.21-30.7,20.73-48.09,26.96-21.9,8.36-45.76,9.15-68.92,8.5-23.69-.36-47.34-2.17-71.03-2.16-28.02-.47-56.81,1.81-82.86,12.87-11.75,5.55-22.85,12.34-34.16,18.7-14.44,8.19-29.06,16.45-41.34,27.74-8.47,7.9-16.05,16.76-22.53,26.37-4.23,6.13-8.72,12.1-12.36,18.61-4.5,7.88-9.73,15.37-13.45,23.68-5.82,12.26-9.15,25.49-12.35,38.63-5.63,26.06-9.02,52.55-11.36,79.09-1.2,11.3-2.02,22.62-2.56,33.96-.22,3.93.1,7.91-.69,11.79-.76-6.24.85-12.59-.82-18.73-5.13-24.83-9.07-49.87-12.25-75.01-5-44.19-6.64-89.17.57-133.21,3.95-22.16,10.03-44.24,20.99-64.03,7.87-15.93,20.56-28.63,31.56-42.36,11-11.97,21.89-24.12,34.13-34.86,11.86-10.67,24.48-20.53,37.95-29.11,27.66-18.69,58.13-32.66,88.61-46.04,41.18-17.49,84.39-30.09,128.36-38.2Z"/>
    <path class="cls-38" d="m1010.38,242.86c22.56-5.65,46.3-6.39,69.23-2.67,20.43,3.49,40.98,11.41,55.51,26.68,13.05,13.95,18.73,32.72,23.95,50.65,5.53,19.82,9.85,40.33,19.75,58.57,10.79,18.54,25.73,34.19,40.88,49.2,12.53,12.41,25.69,24.25,37.13,37.7,11.45,12.54,20.9,26.97,27.53,42.62,4.7,11.72,6.67,24.38,7.28,36.94,1.75,27.8-1.4,55.62-5.43,83.1-6.97,43.59-17.52,86.53-29.46,129-3.27,10.29-5.95,20.78-9.6,30.93-.68-22.74-1.88-45.45-3.35-68.15-3.67-48.25-8.03-96.62-18.38-143.97-2.66-11.85-5.85-23.58-9.76-35.08-3.49-8.57-6.58-17.43-12.01-25.01-10.54-14.56-22.42-28.33-36.48-39.6-15.85-13.73-34.55-23.48-51.71-35.37-16.1-10.59-30.07-24.01-45.75-35.16-21.99-15.73-45.23-29.71-66.49-46.45-7.25-6.36-15.68-11.87-20.54-20.46-5.81-10.2-7.73-22.23-7.3-33.84.11-14.57,2.9-29.05,7.31-42.91,1.06-3.81,4.1-6.58,7.35-8.6,6.23-3.89,13.29-6.2,20.34-8.12m3.85,39.77c4.33,32.8,22.38,63.47,48.62,83.57,7.47,6.01,15.96,10.55,23.78,16.07,13.63,9.86,25.62,21.77,36.96,34.15,10.67,11.35,20.89,23.43,33.87,32.24,8.77,5.42,18.71,8.73,27.17,14.68,15.88,9.55,27.41,24.53,37.12,40.01,6.63,10.37,13.83,20.43,19.35,31.47,4.2,8.55,8,17.32,10.72,26.46,7.53,22.72,11.9,46.47,13.24,70.36,1.7-3.51,2.56-7.35,3.71-11.06,6.42-25.05,8.75-51.42,4.43-77.03-3.44-19.66-10.46-39.1-22.57-55.14-24.53-30.42-57.86-52.19-82.96-82.07-13.34-15.64-17.76-36.28-22.52-55.72-4.57-17.91-8.7-37.16-21.58-51.2-13.02-13.19-29.67-23.22-47.99-26.78-20.83-4.2-42.71.16-61.35,9.99Z"/>
    <path class="cls-38" d="m876.51,263.54c12.72-.31,25.47-1.6,38.19-.75-20.96,7.93-41.29,17.46-61.13,27.87-11.91,6.81-24.08,13.41-34.53,22.41-5.64,4.67-10.06,10.59-15.35,15.62-9.89,9.12-21.11,16.7-32.85,23.22-25.3,14.81-52.31,26.43-79.5,37.3-11.58,4.43-23.05,9.14-34.83,13.03-13.84,4.42-28.02,7.67-42.22,10.69-43.25,8.35-88.06,12.78-131.74,5.03-13.56-2.77-27.01-7.24-41.02-6.69-20.9.12-41.09,8.18-58,20.13-16.73,11.7-30.89,26.7-43.35,42.78-26.31,34.94-46.34,74.34-61.49,115.28.49-3.92,2.41-7.42,3.61-11.14,3.1-9.09,6.87-17.93,10.48-26.83,12.14-30.49,26.67-60.07,43.89-88.03,9.02-14.58,19.16-28.45,30.28-41.5,12.75-14.44,27.38-27.65,44.77-36.24,16.02-7.88,34.09-9.95,51.7-11.03,28.35-1.25,56.69,1.17,85.03,1.67,24.19.3,49.04-.26,72.05-8.61,13.4-5.09,25.87-12.41,37.63-20.57,26.64-17.76,51.03-38.74,78.31-55.57,13.84-8.55,28.99-15.14,45.02-18.21,31.3-6.16,63.2-8.65,95.05-9.86Z"/>
    <path class="cls-38" d="m1200.02,1018.06c19.35-36.6,38.01-74.17,47.39-114.73.43,25.36.41,50.73.32,76.1-.14,26.35.08,52.71-.42,79.06-.7,46.06-1.19,92.13-3.69,138.14-1.57,24.33,1.45,49.07,9.87,72,6.32,19.1,15.8,36.92,25.22,54.63,7.69,14.53,15.78,29.09,20.07,45.06,2.95,11.49,2.48,24.06-2.76,34.83-6.74,14.03-18.73,24.7-31.2,33.61-8.71,6-17.04,12.57-26.15,17.97-8.6,5.17-16.9,10.88-25.87,15.41-5.63-13.78-18.21-22.93-30.51-30.4-20.07-11.7-41.97-19.7-63.92-27.04-38.59-12.42-78.16-21.53-117.91-29.34-22.87-4.68-45.96-8.18-68.96-12.19-14.13-1.79-28.13-4.66-42.34-5.71-.45-.05-1.34-.15-1.79-.2l-1.04-.08c-.97,1.34-1.86,2.75-2.63,4.23-13.21-3.27-26.64-5.44-40-7.98,4.14-17.62,7.51-35.43,12.27-52.89,2.45-8.77,5.16-17.46,7.25-26.32,40.05-10.34,79.09-24.84,115.68-44.2,63.84-33.33,120.61-80.09,165.75-136.18,21.26-25.94,39.51-54.26,55.37-83.78Z"/>
    <path class="cls-38" d="m229.56,918.09c8.21,29.19,19.23,57.57,32.73,84.72,32.63,65.54,78.82,124.04,133.66,172.44.36-.34,1.09-1.02,1.45-1.35,3.47,3.78,7.74,6.69,11.74,9.9,59.81,47.77,130.3,82.03,204.76,99.74,1.6,7.04,3.94,13.88,5.57,20.92,4.51,19.13,8.97,38.27,13.5,57.4-12.35,2.28-24.72,4.43-36.94,7.34-1.01-2.33-2.66-4.69-5.54-3.6-44.39,5.58-88.66,12.28-132.67,20.33-40.96,7.82-81.84,16.61-121.64,29.16-19.61,6.37-39.21,13.35-56.97,23.98-7.64,4.78-15.36,10.1-20.35,17.79-4.65,7.04-5.4,15.66-7.62,23.62-15.88-9.6-31.22-20.25-45.01-32.71-11.83-10.87-22.51-24.46-24.94-40.78-2.01-12.68,1.43-25.34,5.52-37.24,8.19-22.05,18.92-43.08,26.79-65.26,7.13-18.81,12.11-38.37,15.74-58.14,3.63-21.08,4.66-42.51,4.44-63.88.56-88.14-1.56-176.28-4.22-264.38Z"/>
    <rect class="cls-2" x=".5" y=".5" width="1478" height="2000"/>
  </g>
  <g id="_ccccccff" data-name="#ccccccff">
    <path class="cls-22" d="m733.57,170.44c24.51-5.86,49.66-9.48,74.9-9.14,48.76,0,96.17,16.82,137.74,41.47,14.28,9.01,28.45,19.59,36.82,34.62,9.84-6.64,21.73-9.38,33.39-10.55,22.52-1.92,45.11,1.36,67.14,5.85,18.72,4.68,38.37,7.53,55.25,17.49,14.15,7.82,25.12,20.59,31.87,35.18,9.42,19.74,13.12,41.51,19.83,62.2,6.32,20.45,16.23,40.19,31.2,55.7,9.9,10.53,22.27,18.25,32.77,28.12,14.35,13.02,27.08,27.96,36.75,44.79,10.37,18.28,17.11,39.14,16.43,60.31-1.43,23.89-3.57,47.74-6.3,71.51-5.98,49.66-14.56,99.02-26.05,147.7-.51,2.23-1.04,4.46-1.52,6.7-6.96,29.75-14.92,59.27-24.01,88.43-2.26,6.56-4.11,13.27-6.64,19.73-1.35-54.75-4.11-109.5-9.81-163.98-2.08-23.42-5.28-46.72-9.09-69.92-3.53-19.58-7.41-39.17-13.56-58.12-4.82-17-13.67-32.45-22.39-47.68-9.41-16.03-20.46-31.38-34.61-43.58-11.97-10.45-25.88-18.25-39.07-26.98-17.63-10.98-34.38-23.33-50.15-36.83-13.25-11.45-26.17-23.36-40.66-33.27-10.02-7.18-20.91-12.97-31.27-19.61-7.26-4.63-13.71-10.87-17.24-18.83-6.85-15.1-8.41-31.84-10.52-48.09-.69-5.11-1.37-10.21-1.74-15.34-28.85,26.11-59.28,50.56-91.88,71.86-33.23,21.88-68.54,40.62-105.38,55.63-56.63,23.29-116.58,37.79-177.15,46.1-23.79,2.7-47.67-.85-71.16-4.5-27.27-3.92-54.37-9.61-81.98-10.56-15.84-.51-32.15.56-46.98,6.61-10.13,4.07-18.16,11.73-25.6,19.49-18.99,20.07-32.61,44.37-44.97,68.88-25.85,53.72-43.78,110.85-58.73,168.45-4.89,20.54-10.3,40.96-14.19,61.73-1.83,6.75-2.96,13.67-4.33,20.53-4.57-23.54-7.8-47.31-11.66-70.96-4.92-35.23-10.33-70.54-10.74-106.17.75-20.7,1.04-41.45,2.57-62.11.79-3.88.47-7.86.69-11.79.54-11.34,1.36-22.66,2.56-33.96,2.34-26.54,5.73-53.03,11.36-79.09,3.2-13.14,6.53-26.37,12.35-38.63,3.72-8.31,8.95-15.8,13.45-23.68,3.64-6.51,8.13-12.48,12.36-18.61,6.48-9.61,14.06-18.47,22.53-26.37,12.28-11.29,26.9-19.55,41.34-27.74,11.31-6.36,22.41-13.15,34.16-18.7,26.05-11.06,54.84-13.34,82.86-12.87,23.69-.01,47.34,1.8,71.03,2.16,23.16.65,47.02-.14,68.92-8.5,17.39-6.23,33.46-15.75,48.09-26.96,15.21-11.69,29.07-25.05,44.58-36.36,13.55-10.66,29.51-18.32,46.44-21.76m-36.07,54.86c-33.57,15.62-64.12,36.72-95.99,55.38-5.52,3.15-10.78,6.76-16.58,9.37-7.99,3.91-16.63,6.21-25.28,8.12-25.67,5.36-51.96,6.25-78.07,7.57-24.36,1.1-48.76,1.29-73.06,3.36-12.2.85-24.52,2.24-36.2,6.05-18.6,5.26-35.66,15.36-49.99,28.26-15.08,13.62-27.14,30.28-36.9,48.03-18.32,33.9-28.9,71.4-36.02,109.1-9.26,52.39-12.49,105.76-11.2,158.93.39,9.34.33,18.73,1.53,28.01,7.78-29.27,16.79-58.19,26.06-87.02,7.83-22.31,15.06-44.84,23.66-66.88,14.28-37.27,30.08-74.16,50.64-108.46,9.63-15.2,20.16-30.49,34.89-41.21,15.01-10.31,31.82-18.07,49.54-22.37,22.22-5.48,45.23-6.21,67.99-7.33,32.98-1.2,65.97-2.28,98.9-4.42,7.04-.74,13.64-3.47,20.1-6.22,15.84-7.26,30.81-16.29,45.56-25.54,27.58-17.37,53.99-36.49,80.44-55.5,12.75-9.08,28.36-12.48,43.38-15.72,19.35-3.9,39.03-5.59,58.65-7.48,26.34-2.03,52.75-3.1,79.17-3.3-6.06-5.37-13.02-9.57-19.62-14.22-6.31-4.48-12.98-8.44-19.69-12.28-12.49-6.62-25.53-13.31-39.84-14.52-11.66-1.3-23.41-.65-35.07.15-37.04,3.87-73.21,14.61-107,30.14m312.88,17.56c-7.05,1.92-14.11,4.23-20.34,8.12-3.25,2.02-6.29,4.79-7.35,8.6-4.41,13.86-7.2,28.34-7.31,42.91-.43,11.61,1.49,23.64,7.3,33.84,4.86,8.59,13.29,14.1,20.54,20.46,21.26,16.74,44.5,30.72,66.49,46.45,15.68,11.15,29.65,24.57,45.75,35.16,17.16,11.89,35.86,21.64,51.71,35.37,14.06,11.27,25.94,25.04,36.48,39.6,5.43,7.58,8.52,16.44,12.01,25.01,3.91,11.5,7.1,23.23,9.76,35.08,10.35,47.35,14.71,95.72,18.38,143.97,1.47,22.7,2.67,45.41,3.35,68.15,3.65-10.15,6.33-20.64,9.6-30.93,11.94-42.47,22.49-85.41,29.46-129,4.03-27.48,7.18-55.3,5.43-83.1-.61-12.56-2.58-25.22-7.28-36.94-6.63-15.65-16.08-30.08-27.53-42.62-11.44-13.45-24.6-25.29-37.13-37.7-15.15-15.01-30.09-30.66-40.88-49.2-9.9-18.24-14.22-38.75-19.75-58.57-5.22-17.93-10.9-36.7-23.95-50.65-14.53-15.27-35.08-23.19-55.51-26.68-22.93-3.72-46.67-2.98-69.23,2.67m-133.87,20.68c-31.85,1.21-63.75,3.7-95.05,9.86-16.03,3.07-31.18,9.66-45.02,18.21-27.28,16.83-51.67,37.81-78.31,55.57-11.76,8.16-24.23,15.48-37.63,20.57-23.01,8.35-47.86,8.91-72.05,8.61-28.34-.5-56.68-2.92-85.03-1.67-17.61,1.08-35.68,3.15-51.7,11.03-17.39,8.59-32.02,21.8-44.77,36.24-11.12,13.05-21.26,26.92-30.28,41.5-17.22,27.96-31.75,57.54-43.89,88.03-3.61,8.9-7.38,17.74-10.48,26.83-1.2,3.72-3.12,7.22-3.61,11.14,15.15-40.94,35.18-80.34,61.49-115.28,12.46-16.08,26.62-31.08,43.35-42.78,16.91-11.95,37.1-20.01,58-20.13,14.01-.55,27.46,3.92,41.02,6.69,43.68,7.75,88.49,3.32,131.74-5.03,14.2-3.02,28.38-6.27,42.22-10.69,11.78-3.89,23.25-8.6,34.83-13.03,27.19-10.87,54.2-22.49,79.5-37.3,11.74-6.52,22.96-14.1,32.85-23.22,5.29-5.03,9.71-10.95,15.35-15.62,10.45-9,22.62-15.6,34.53-22.41,19.84-10.41,40.17-19.94,61.13-27.87-12.72-.85-25.47.44-38.19.75Z"/>
    <path class="cls-22" d="m1014.23,282.63c18.64-9.83,40.52-14.19,61.35-9.99,18.32,3.56,34.97,13.59,47.99,26.78,12.88,14.04,17.01,33.29,21.58,51.2,4.76,19.44,9.18,40.08,22.52,55.72,25.1,29.88,58.43,51.65,82.96,82.07,12.11,16.04,19.13,35.48,22.57,55.14,4.32,25.61,1.99,51.98-4.43,77.03-1.15,3.71-2.01,7.55-3.71,11.06-1.34-23.89-5.71-47.64-13.24-70.36-2.72-9.14-6.52-17.91-10.72-26.46-5.52-11.04-12.72-21.1-19.35-31.47-9.71-15.48-21.24-30.46-37.12-40.01-8.46-5.95-18.4-9.26-27.17-14.68-12.98-8.81-23.2-20.89-33.87-32.24-11.34-12.38-23.33-24.29-36.96-34.15-7.82-5.52-16.31-10.06-23.78-16.07-26.24-20.1-44.29-50.77-48.62-83.57Z"/>
    <path class="cls-22" d="m883.01,664.92c34.11-27.98,78.03-45.07,122.46-43.15,41.18,1.11,81.29,18.39,111.48,46.21,1.65,2.48,2.74,5.28,3.5,8.16-10.29-1.44-20.69-1.9-31.03-2.84-11.17-.9-22.36-1.99-33.58-1.83-7.02-15.34-19.06-28.36-33.91-36.4-17.57-9.62-38.94-11.96-58.18-6.33-26.15,7.31-47.27,29.4-53.96,55.65-12.06,3.44-23.63,8.33-35.14,13.25-6.35,3-12.89,5.61-18.99,9.09-2.71,1.52-5.54,2.81-8.4,3.99.62-3.44,1.64-6.8,2.98-10.02,1.66-3.86,3.29-7.81,6.05-11.04,8.51-8.67,17.14-17.24,26.72-24.74Z"/>
    <path class="cls-22" d="m423.56,630.32c40.1-10.75,83.96-6.46,121.2,11.87,25.12,11.9,47.06,29.68,65.74,50.12,2.28,2.93,3.71,6.39,5.22,9.76,1.42,3.37,2.53,6.88,3.22,10.48-11.74-5.36-23.09-11.57-35.1-16.33-9.03-3.68-18.16-7.13-27.47-10.01-4.36-16.46-14.08-31.51-27.54-41.99-12.83-10.14-28.95-16.07-45.3-16.52-14.92-.53-29.95,3.46-42.67,11.27-13.46,8.2-24.33,20.57-30.74,34.97-2.17-.51-4.38-.8-6.6-.62-19.22.93-38.37,3.07-57.57,4.31.71-2.69,1.73-5.31,3.24-7.66,21.38-18.57,46.93-32.5,74.37-39.65Z"/>
  </g>
  <g id="_000000ff" data-name="#000000ff">
    <path class="cls-1" d="m697.5,225.3c33.79-15.53,69.96-26.27,107-30.14,11.66-.8,23.41-1.45,35.07-.15,14.31,1.21,27.35,7.9,39.84,14.52,6.71,3.84,13.38,7.8,19.69,12.28,6.6,4.65,13.56,8.85,19.62,14.22-26.42.2-52.83,1.27-79.17,3.3-19.62,1.89-39.3,3.58-58.65,7.48-15.02,3.24-30.63,6.64-43.38,15.72-26.45,19.01-52.86,38.13-80.44,55.5-14.75,9.25-29.72,18.28-45.56,25.54-6.46,2.75-13.06,5.48-20.1,6.22-32.93,2.14-65.92,3.22-98.9,4.42-22.76,1.12-45.77,1.85-67.99,7.33-17.72,4.3-34.53,12.06-49.54,22.37-14.73,10.72-25.26,26.01-34.89,41.21-20.56,34.3-36.36,71.19-50.64,108.46-8.6,22.04-15.83,44.57-23.66,66.88-9.27,28.83-18.28,57.75-26.06,87.02-1.2-9.28-1.14-18.67-1.53-28.01-1.29-53.17,1.94-106.54,11.2-158.93,7.12-37.7,17.7-75.2,36.02-109.1,9.76-17.75,21.82-34.41,36.9-48.03,14.33-12.9,31.39-23,49.99-28.26,11.68-3.81,24-5.2,36.2-6.05,24.3-2.07,48.7-2.26,73.06-3.36,26.11-1.32,52.4-2.21,78.07-7.57,8.65-1.91,17.29-4.21,25.28-8.12,5.8-2.61,11.06-6.22,16.58-9.37,31.87-18.66,62.42-39.76,95.99-55.38Z"/>
    <path class="cls-1" d="m1078.34,628.04c9.7-8.26,18.54-17.67,25.22-28.57-5.04,11.89-11.28,23.24-16.71,34.96,2.9,2.26,5.45,5.01,8.61,6.95,12.35-10.02,22.82-22.37,31-36-6.28,15.07-13.76,29.62-20.4,44.53-.69,1.21-.1,2.51.17,3.75,16.58-8.52,32.15-19.39,44.59-33.37.44-.42,1.32-1.28,1.76-1.71-.84,1.25-1.69,2.48-2.54,3.72-11.09,15.18-21.84,30.62-33.09,45.68-30.19-27.82-70.3-45.1-111.48-46.21-44.43-1.92-88.35,15.17-122.46,43.15-9.58,7.5-18.21,16.07-26.72,24.74,5.69-9.1,11.77-17.96,18.69-26.18,20.97-25.16,49.16-44.65,80.81-53.57,16.12-4.6,32.97-6.84,49.74-6.12,21.47.84,42.6,7.04,61.4,17.38,3.85,2.2,7.56,4.65,11.41,6.87Z"/>
    <path class="cls-1" d="m363.74,604.18c6.22,9.78,13.85,18.63,22.61,26.23,23.45-16.53,52.34-24.79,80.96-23.87,32.82,1.15,65.07,12.37,91.76,31.45,10.2,7.27,19.64,15.6,28.25,24.69,8.57,9.19,15.98,19.35,23.18,29.63-18.68-20.44-40.62-38.22-65.74-50.12-37.24-18.33-81.1-22.62-121.2-11.87-27.44,7.15-52.99,21.08-74.37,39.65-8.5-11.51-16.74-23.21-25.15-34.78-3.47-4.94-7.09-9.77-10.54-14.72,3.66,3.34,6.78,7.22,10.42,10.59,10.84,9.62,22.86,17.95,35.88,24.34.2-1.41.83-2.87.05-4.2-6.68-14.63-13.7-29.12-20.24-43.81,2.95,3.82,5.07,8.2,8.13,11.93,6.65,8.74,14.24,16.77,22.64,23.85,2.88-2.48,5.78-4.94,8.56-7.54-5.14-10.45-10.48-20.81-15.2-31.45Z"/>
    <path class="cls-1" d="m959.79,660.74c15.29-9.52,36.15-9.56,51.22.47-6.15,6.29-6.13,17.4.4,23.41,5.4,5.44,14.58,5.89,20.72,1.41,1.61,6.03,3.53,12.07,3.37,18.39.04,8.28-2.21,16.46-5.89,23.84-29.7-.05-59.4,0-89.1-.02-3.58-7.73-6.1-16.16-5.74-24.76.48-17.23,10.02-34.07,25.02-42.74Z"/>
    <path class="cls-1" d="m465.87,657.95c12.85-4.14,27.37-2.8,39.15,3.83-3.65,3.19-6.11,7.82-6.09,12.75-.22,7.41,5.24,14.57,12.54,16.09,5.57,1.4,11.59-.66,15.52-4.77,2.5,6.24,4.38,12.82,4.44,19.59.34,7.89-1.84,15.56-4.78,22.8-30.41-.01-60.81.02-91.22-.01-2.67-6.99-4.99-14.31-4.73-21.89.06-9.16,2.78-18.26,7.42-26.13,6.16-10.47,16.29-18.37,27.75-22.26Z"/>
  </g>
  <g id="_bd6b33ff" data-name="#bd6b33ff">
    <path class="cls-32" d="m871.15,360.18c32.6-21.3,63.03-45.75,91.88-71.86.37,5.13,1.05,10.23,1.74,15.34,2.11,16.25,3.67,32.99,10.52,48.09,3.53,7.96,9.98,14.2,17.24,18.83,10.36,6.64,21.25,12.43,31.27,19.61,14.49,9.91,27.41,21.82,40.66,33.27,15.77,13.5,32.52,25.85,50.15,36.83,13.19,8.73,27.1,16.53,39.07,26.98,14.15,12.2,25.2,27.55,34.61,43.58,8.72,15.23,17.57,30.68,22.39,47.68,6.15,18.95,10.03,38.54,13.56,58.12,3.81,23.2,7.01,46.5,9.09,69.92,5.7,54.48,8.46,109.23,9.81,163.98,2.53-6.46,4.38-13.17,6.64-19.73.76,2.15,1.2,4.41,1.13,6.72-.15,9.02.24,18.05-.47,27.06-.6,6.3-2.2,12.45-3.03,18.73-9.38,40.56-28.04,78.13-47.39,114.73-15.86,29.52-34.11,57.84-55.37,83.78.24-3.49,2.09-6.48,3.8-9.42,17.01-32.8,34.76-65.2,52.03-97.86,8.25-16.62,16.88-33.35,20.46-51.72,4.43-23.24,6.46-46.85,8.81-70.38,4.38-50.55,4.29-101.58-1.5-152.02-7.16-59.98-22.67-119.46-50.42-173.33-8.38-16.85-18.2-33.09-30.25-47.58-22.18-27.48-52.28-46.91-82.43-64.55-24.7-14.92-49.74-29.53-72.03-47.97-7.73-6.6-16.2-12.6-22-21.09-8.34-12.02-13.49-25.84-18.76-39.39-.21-.69-1.31-2.55-1.96-1.12-21.37,27.78-47.41,51.65-75.24,72.82-13.17,9.24-26.29,18.62-40.34,26.53-45.81,26.58-96.97,44.07-149.62,50.27-16.14,2.31-32.46,2.67-48.74,3.21-7,.15-13.98-.67-20.98-.67-20-.76-39.84-3.53-59.61-6.53-46.82-7.11-95.91-7.03-141.07,8.7-32.43,11.03-61.8,30.98-83.59,57.46-9.76,11.81-18.09,24.78-24.74,38.58l-.28.52c-7.83,15.18-13.1,31.61-16.52,48.32-5.56,25.83-10.17,51.86-14.99,77.84-7.51,39.6-14.14,79.37-21.29,119.04-2.82,16.87-7,33.74-5.97,50.99,1.5,31.05,10.18,61.26,20.71,90.34,6.02,16.73,13.45,32.88,20.84,49.04,2.85,6.92,6.76,13.3,10.18,19.94,4.23,8.89,9.04,17.49,14.14,25.91,4.51,7.21,8.35,14.83,13.26,21.79,15.84,24.43,32.65,48.26,50.88,70.98,6.33,8.07,12.35,16.46,19.97,23.41-.36.33-1.09,1.01-1.45,1.35-54.84-48.4-101.03-106.9-133.66-172.44-13.5-27.15-24.52-55.53-32.73-84.72-2.52-10.19-4.89-20.44-6.72-30.78-3.66,3.24-7.21,6.66-11.44,9.17-.22-.49-.66-1.49-.88-1.99,15.85-31.74,25.84-66.18,31.94-101.05,1.23-7.09,3.46-14.16,2.55-21.43,3.89-20.77,9.3-41.19,14.19-61.73,14.95-57.6,32.88-114.73,58.73-168.45,12.36-24.51,25.98-48.81,44.97-68.88,7.44-7.76,15.47-15.42,25.6-19.49,14.83-6.05,31.14-7.12,46.98-6.61,27.61.95,54.71,6.64,81.98,10.56,23.49,3.65,47.37,7.2,71.16,4.5,60.57-8.31,120.52-22.81,177.15-46.1,36.84-15.01,72.15-33.75,105.38-55.63Z"/>
  </g>
  <g id="_cd7f4bff" data-name="#cd7f4bff">
    <path class="cls-20" d="m950.4,325.41c.65-1.43,1.75.43,1.96,1.12,5.27,13.55,10.42,27.37,18.76,39.39,5.8,8.49,14.27,14.49,22,21.09,22.29,18.44,47.33,33.05,72.03,47.97,30.15,17.64,60.25,37.07,82.43,64.55,12.05,14.49,21.87,30.73,30.25,47.58,27.75,53.87,43.26,113.35,50.42,173.33,5.79,50.44,5.88,101.47,1.5,152.02-2.35,23.53-4.38,47.14-8.81,70.38-3.58,18.37-12.21,35.1-20.46,51.72-17.27,32.66-35.02,65.06-52.03,97.86-1.71,2.94-3.56,5.93-3.8,9.42-45.14,56.09-101.91,102.85-165.75,136.18-36.59,19.36-75.63,33.86-115.68,44.2-9.05,1.8-17.94,4.26-27.03,5.81-73.3,14.3-149.62,12.65-222.29-4.49-74.46-17.71-144.95-51.97-204.76-99.74-4-3.21-8.27-6.12-11.74-9.9-7.62-6.95-13.64-15.34-19.97-23.41-18.23-22.72-35.04-46.55-50.88-70.98-4.91-6.96-8.75-14.58-13.26-21.79-5.1-8.42-9.91-17.02-14.14-25.91-3.42-6.64-7.33-13.02-10.18-19.94-7.39-16.16-14.82-32.31-20.84-49.04-10.53-29.08-19.21-59.29-20.71-90.34-1.03-17.25,3.15-34.12,5.97-50.99,7.15-39.67,13.78-79.44,21.29-119.04,4.82-25.98,9.43-52.01,14.99-77.84,3.42-16.71,8.69-33.14,16.52-48.32,11.24-2.1,22.55-3.75,33.9-5.2-.6,2.29-1.26,4.57-2.11,6.79-4.66,12.13-7.98,24.72-10.91,37.37-1.31,5.21-1.53,10.65-3.15,15.8-3.64-3.37-6.76-7.25-10.42-10.59,3.45,4.95,7.07,9.78,10.54,14.72-2.95,21.61-1.14,44.26,7.34,64.49,5.44,12.86,14.97,23.32,25.49,32.26-11.08,8.58-15.34,22.83-17.67,36.07-2.98,20.03-2.08,41.22,5.72,60.11,4.13,9.65,12.08,19.74,23.54,19.82,90.03.53,180.07,1.04,270.1.05,5.38-.06,10.78-1.96,14.69-5.72,10.19-9.66,13.86-23.98,15.98-37.39,23.23-6.19,47.36-8.68,71.37-8.08,22.9.58,45.87,3.86,67.62,11.25,2.27,10.95,5.19,22.36,12.58,31.08,4.17,5.41,10.71,8.95,17.61,8.85,86.38.42,172.75.99,259.13.1,7.16-.2,15,.9,21.39-3.16,7.19-4.69,11.72-12.47,14.64-20.36,5.61-15.62,6.77-32.56,5.3-49-1.08-10.21-3.19-20.47-7.69-29.75-3.44-6.96-8.62-13.64-16.09-16.46,4.68-5.08,10.09-9.5,14.01-15.25,12.59-17.28,17.91-38.67,20.15-59.63.94-10.69,1.72-21.46.79-32.17.85-1.24,1.7-2.47,2.54-3.72-.44.43-1.32,1.29-1.76,1.71-.83-3.54-1.19-7.16-1.36-10.79-.82-14.14-3.07-28.15-5.76-42.04-1.35-9.28-4.25-18.24-5.63-27.5,9.16,3.49,18.18,7.41,26.85,12.01,3.86,2,7.64,4.23,11.79,5.63-13.81-9.59-28.34-18.08-42.91-26.47-18.62-10.07-37.81-19.44-58.27-25.14-19.8-5.54-40.91-7.23-61.17-3.27-17.12,2.75-33.53,8.7-49.51,15.28-18.04,7.49-35.4,16.46-53.05,24.79-17.98,8.69-35.92,17.45-53.87,26.18-11.08,5.42-22.14,11.31-31.34,19.64-3.63,3.43-7.25,7.25-8.82,12.1-1,2.86-.26,6.42,2.41,8.12,4.52,2.92,10.23,2.68,15.39,2.31,14.33-1.49,27.78-7.05,41.06-12.3-1.12,4-4.21,6.86-6.62,10.08-6.8,9.83-12.43,20.46-16.28,31.8-5.48,15.69-7.96,32.28-9.29,48.8-.33,4.53,3.48,7.72,5.8,11.18-1.34,3.22-2.36,6.58-2.98,10.02-1.07,5.78-1.09,11.69-.34,17.52-5.94.11-12.24-.66-17.77,1.99-5.02,2.33-8.75,6.7-11.71,11.25-6.76,10.97-8.97,23.94-10.44,36.54l-.9-.17c-11.52-1.92-22.96-4.41-34.6-5.4-33.84-3.86-68.23-2.26-101.71,3.89-1.26-12.32-3.89-24.91-10.6-35.51-3.99-6.14-10.03-11.73-17.66-12.35-7.36-.54-14.74-.1-22.11-.23.74-5.23.38-10.52-.48-15.7-.69-3.6-1.8-7.11-3.22-10.48,3.8-2.86,5.76-7.29,8.32-11.16.93-1.72,2.29-3.4,2.33-5.43-1.73-17.54-3.11-35.22-7.47-52.36-1.14-4.29-2.53-8.5-3.68-12.78l1.46-.45c8.91.99,18.25,1.64,26.88-1.34,4.08-1.46,8.35-4.41,9.05-9.01.62-4.85-2.43-9.22-5.76-12.4-5.82-5.41-13.26-8.63-20.74-11-39.13-11.7-78.5-22.85-118.63-30.58-12.1-2.13-24.22-4.23-36.46-5.37-25.8-2.92-52.09-2.06-77.53,3.24-21.75,4.34-42.88,11.15-64.37,16.52-7.55,1.97-15.12,3.81-22.65,5.83,6.65-13.8,14.98-26.77,24.74-38.58,21.79-26.48,51.16-46.43,83.59-57.46,45.16-15.73,94.25-15.81,141.07-8.7,19.77,3,39.61,5.77,59.61,6.53,7,0,13.98.82,20.98.67,16.28-.54,32.6-.9,48.74-3.21,52.65-6.2,103.81-23.69,149.62-50.27,14.05-7.91,27.17-17.29,40.34-26.53,27.83-21.17,53.87-45.04,75.24-72.82m-146,573c1.16,7.48,4.28,14.52,5.16,22.07.63,5.4,1.38,11.18-.76,16.35-1.34,3.18-4.74,4.73-7.97,5.17-11.58,1.19-22.4-8.01-33.96-4-10.65,3.93-18.83,13.19-30.23,15.34-7.46,1.43-14.53-2.39-20.36-6.62-6.9-4.91-13.95-10.91-22.82-11.29-6.76-.26-12.22,4.25-17.93,7.15-4.06,2.08-8.63,4.9-13.34,3.33-5.73-2.51-7.74-9.64-6.8-15.4.87-8.83,5.57-16.49,9.29-24.33-6.47,5.82-11.1,13.68-13.71,21.95-2.52,7.36-1.23,16.02,3.82,22.01,2.85,3.38,7.49,5,11.84,4.18,8.65-1.5,15.75-7.13,23.89-10.07,2.92-1.23,5.84.58,8.4,1.85,10.34,5.93,20.54,13.05,32.55,15.01,9.24,1.44,18.05-3.04,25.38-8.21,5.19-3.31,9.88-8.36,16.31-8.94,7.91,1.52,15.07,6.14,23.28,6.38,7.72.61,16.03-3.45,19.08-10.8,3.35-7.81.77-16.43-1.96-23.99-2.54-5.95-4.98-12.13-9.16-17.14m-136.85,137.84c-21.07,1.75-41.14,9.37-62.17,11.39-1.87-.02-3.22,1.25-4.12,2.76,5.8,7.74,10.6,16.18,16.38,23.94,6.53,8.99,13.83,17.45,22.17,24.82,5.36,4.75,11.98,7.66,18.31,10.86,31.35,14.14,66.12,20.8,100.48,18.98,23.39-1.91,46.59-7.06,68.32-16.02,7.57-3.13,15.24-6.26,21.97-11.02,16.11-11.42,28.93-26.71,40.7-42.4,3.72-5.59,8.11-10.79,11.01-16.86-14.56,3.12-29.62,4.42-44.42,2.25-9.1-1.51-17.95-4.18-26.99-5.95-9.76-1.75-19.89-1.89-29.59.29-14.95,2.25-29.37,6.89-44.1,10.14-5.61,1-11.39,3.29-17.07,1.36-11.41-3.43-22.49-7.84-33.85-11.44-11.79-4.39-24.68-4.39-37.03-3.1Z"/>
  </g>
  <g id="_502d16ff" data-name="#502d16ff">
    <path class="cls-33" d="m1014.36,502.72c20.26-3.96,41.37-2.27,61.17,3.27,20.46,5.7,39.65,15.07,58.27,25.14,14.57,8.39,29.1,16.88,42.91,26.47-4.15-1.4-7.93-3.63-11.79-5.63-8.67-4.6-17.69-8.52-26.85-12.01-17.2-6.49-35.19-11.24-53.58-12.49-24.41-1.84-48.89,3.09-71.8,11.3-18.2,6.38-35.5,14.93-53.02,22.89-9.39,4.28-18.71,8.7-28.06,13.06-18.03,8.7-36.36,16.77-54.98,24.12-13.28,5.25-26.73,10.81-41.06,12.3-5.16.37-10.87.61-15.39-2.31-2.67-1.7-3.41-5.26-2.41-8.12,1.57-4.85,5.19-8.67,8.82-12.1,9.2-8.33,20.26-14.22,31.34-19.64,17.95-8.73,35.89-17.49,53.87-26.18,17.65-8.33,35.01-17.3,53.05-24.79,15.98-6.58,32.39-12.53,49.51-15.28Z"/>
    <path class="cls-33" d="m393.49,553.43c25.44-5.3,51.73-6.16,77.53-3.24,12.24,1.14,24.36,3.24,36.46,5.37,40.13,7.73,79.5,18.88,118.63,30.58,7.48,2.37,14.92,5.59,20.74,11,3.33,3.18,6.38,7.55,5.76,12.4-.7,4.6-4.97,7.55-9.05,9.01-8.63,2.98-17.97,2.33-26.88,1.34-13.31-1.72-26.16-5.74-39.08-9.19-30.67-8.09-61.05-17.21-91.66-25.54-18.55-5.4-37.39-9.95-56.48-13.01-29.52-4.97-59.71-4.57-89.37-1.05-11.35,1.45-22.66,3.1-33.9,5.2l.28-.52c7.53-2.02,15.1-3.86,22.65-5.83,21.49-5.37,42.62-12.18,64.37-16.52Z"/>
    <path class="cls-33" d="m907.12,704.29c9.13-1.55,18.44-.77,27.65-.81-.36,8.6,2.16,17.03,5.74,24.76-9.98.08-19.95-.07-29.92.01-2.41-7.75-3.49-15.86-3.47-23.96Z"/>
    <path class="cls-33" d="m1035.5,704.42c9.22-.23,18.43.26,27.66.12.13,8.03-1.27,16.02-3.48,23.72-10.02-.05-20.05-.02-30.07,0,3.68-7.38,5.93-15.56,5.89-23.84Z"/>
    <path class="cls-33" d="m531.43,705.44c9.21-.04,18.53-.73,27.66.81.11,7.41-.98,14.81-2.91,21.96-9.84.07-19.69-.01-29.53.03,2.94-7.24,5.12-14.91,4.78-22.8Z"/>
    <path class="cls-33" d="m403.04,706.55c9.22-.02,18.44-.35,27.66-.21-.26,7.58,2.06,14.9,4.73,21.89-9.83-.01-19.67.06-29.5-.01-1.88-7.07-2.9-14.36-2.89-21.67Z"/>
  </g>
  <g id="_ab673bff" data-name="#ab673bff">
    <path class="cls-14" d="m1012.69,538.77c22.91-8.21,47.39-13.14,71.8-11.3,18.39,1.25,36.38,6,53.58,12.49,1.38,9.26,4.28,18.22,5.63,27.5,2.69,13.89,4.94,27.9,5.76,42.04.17,3.63.53,7.25,1.36,10.79-12.44,13.98-28.01,24.85-44.59,33.37-.27-1.24-.86-2.54-.17-3.75,6.64-14.91,14.12-29.46,20.4-44.53-8.18,13.63-18.65,25.98-31,36-3.16-1.94-5.71-4.69-8.61-6.95,5.43-11.72,11.67-23.07,16.71-34.96-6.68,10.9-15.52,20.31-25.22,28.57-3.85-2.22-7.56-4.67-11.41-6.87.2-1.47-.04-2.91-.98-4.07-11.28-16.48-21.93-33.38-33.5-49.66-5.47-8.16-10.95-16.32-16.32-24.55-1.03-1.48-2.25-2.8-3.44-4.12Z"/>
  </g>
  <g id="_b26d3fff" data-name="#b26d3fff">
    <path class="cls-29" d="m959.67,561.66c17.52-7.96,34.82-16.51,53.02-22.89,1.19,1.32,2.41,2.64,3.44,4.12,5.37,8.23,10.85,16.39,16.32,24.55,11.57,16.28,22.22,33.18,33.5,49.66.94,1.16,1.18,2.6.98,4.07-18.8-10.34-39.93-16.54-61.4-17.38-16.77-.72-33.62,1.52-49.74,6.12-4.57-7.85-10.01-15.15-14.88-22.82-3.03-4.17-5.22-9.07-9.3-12.37,9.35-4.36,18.67-8.78,28.06-13.06Z"/>
  </g>
  <g id="_ac683bff" data-name="#ac683bff">
    <path class="cls-18" d="m340.09,571.1c29.66-3.52,59.85-3.92,89.37,1.05,19.09,3.06,37.93,7.61,56.48,13.01-5.96,6.91-12.88,12.91-19.11,19.57.12.45.36,1.35.48,1.81-28.62-.92-57.51,7.34-80.96,23.87-8.76-7.6-16.39-16.45-22.61-26.23,4.72,10.64,10.06,21,15.2,31.45-2.78,2.6-5.68,5.06-8.56,7.54-8.4-7.08-15.99-15.11-22.64-23.85-3.06-3.73-5.18-8.11-8.13-11.93,6.54,14.69,13.56,29.18,20.24,43.81.78,1.33.15,2.79-.05,4.2-13.02-6.39-25.04-14.72-35.88-24.34,1.62-5.15,1.84-10.59,3.15-15.8,2.93-12.65,6.25-25.24,10.91-37.37.85-2.22,1.51-4.5,2.11-6.79Z"/>
    <path class="cls-18" d="m324.04,635.19c8.41,11.57,16.65,23.27,25.15,34.78-1.51,2.35-2.53,4.97-3.24,7.66-2.48,10.31-1.47,21.46,3.36,30.96,3.66,7.72,9.58,14.01,15.65,19.91-2.84.78-5.57,1.92-8.09,3.44-10.52-8.94-20.05-19.4-25.49-32.26-8.48-20.23-10.29-42.88-7.34-64.49Z"/>
  </g>
  <g id="_bd7544ff" data-name="#bd7544ff">
    <path class="cls-12" d="m876.63,598.84c18.62-7.35,36.95-15.42,54.98-24.12,4.08,3.3,6.27,8.2,9.3,12.37,4.87,7.67,10.31,14.97,14.88,22.82-31.65,8.92-59.84,28.41-80.81,53.57-3.66-6.94-8.41-13.22-12.65-19.8-1.69-3.09-5.73-2.11-8.6-2.96,3.85-11.34,9.48-21.97,16.28-31.8,2.41-3.22,5.5-6.08,6.62-10.08Z"/>
  </g>
  <g id="_b87142ff" data-name="#b87142ff">
    <path class="cls-6" d="m485.94,585.16c30.61,8.33,60.99,17.45,91.66,25.54-7.2,8.38-11.93,18.48-18.53,27.29-26.69-19.08-58.94-30.3-91.76-31.45-.12-.46-.36-1.36-.48-1.81,6.23-6.66,13.15-12.66,19.11-19.57Z"/>
  </g>
  <g id="_ce7f4aff" data-name="#ce7f4aff">
    <path class="cls-30" d="m148.86,622.99c9.14-10.38,21.53-19.01,35.7-19.94,12.43-1.05,24.39,4.5,33.72,12.36.41,35.63,5.82,70.94,10.74,106.17,3.86,23.65,7.09,47.42,11.66,70.96,1.37-6.86,2.5-13.78,4.33-20.53.91,7.27-1.32,14.34-2.55,21.43-6.1,34.87-16.09,69.31-31.94,101.05.22.5.66,1.5.88,1.99-9.15,5.8-20.33,8.77-31.1,6.74-14.1-2.51-25.78-12.09-34.49-23.03-12.22-15.44-20.06-33.87-25.59-52.63-6.68-23.07-9.7-47.11-9.98-71.09-.22-26.02,2.73-52.18,9.97-77.21,6.03-20.24,14.59-40.26,28.65-56.27m.17,79.37c-5.83,19.61-10.38,39.73-11.78,60.19-.24,12.99-.58,26.11,2.1,38.9,3.93,22.06,13.75,42.63,25.81,61.35,1.28,2.16,2.55,4.41,4.54,6.04-1.23-4.79-4.3-8.8-6.23-13.3-8.45-16.18-12.98-34.7-11.12-52.97.7-7.19,1.18-14.82,5.25-21.04,3.62-6.05,7.25-13.54,14.82-15.18,10.6-2.2,22.15,1.03,32.32-3.42-9.97-3.84-20.48-7.07-31.27-6.59-7.63.08-15,2.92-20.95,7.63-2.57-2.2-4.35-5.18-5.08-8.48-3.3-13.72-1.54-27.99.48-41.75.33-3.78,2.22-7.62,1.11-11.38Z"/>
    <path class="cls-30" d="m1301.36,607.99c11.17,2.78,20.76,9.89,28.34,18.36,11.48,12.86,19.3,28.54,25.16,44.63,7.87,22.03,11.95,45.29,13.4,68.6,1.5,26.45-.26,53.15-6.15,79.01-5.25,22.47-13.43,44.7-27.27,63.37-8.03,10.49-18.34,20-31.21,23.94-9.91,3.14-20.95,2.11-30.25-2.43-9.09-4.26-16.58-11.24-22.94-18.87.71-9.01.32-18.04.47-27.06.07-2.31-.37-4.57-1.13-6.72,9.09-29.16,17.05-58.68,24.01-88.43,8.39.97,17.34-.9,25.3,2.57,6.5,4.67,10.53,12.07,13.67,19.27,2.72,9.14,3.19,18.8,2.91,28.28-.35,13.25-4.56,26.09-10.18,37.99-2.68,6.22-6.57,11.85-9.05,18.15,4.5-4.77,7.35-10.77,10.97-16.19,11.05-18.69,19.56-39.25,22.23-60.94,3.39-25.91-.33-52.2-6.81-77.34-1.73-5.64-2.67-11.55-5.2-16.92,2.11,14.76,5.49,29.57,4.38,44.58-.64,6.83-.96,14.94-6.96,19.47-5-4.1-11.07-6.94-17.54-7.57-7.47-.95-14.86.84-22.2,1.95,11.49-48.68,20.07-98.04,26.05-147.7Z"/>
  </g>
  <g id="_c07745ff" data-name="#c07745ff">
    <path class="cls-17" d="m559.07,637.99c6.6-8.81,11.33-18.91,18.53-27.29,12.92,3.45,25.77,7.47,39.08,9.19l-1.46.45c-3.69,3.48-5.88,8.13-8.56,12.36-6.52,9.94-12.92,19.96-19.34,29.98-8.61-9.09-18.05-17.42-28.25-24.69Z"/>
  </g>
  <g id="_c57a48ff" data-name="#c57a48ff">
    <path class="cls-27" d="m606.66,632.7c2.68-4.23,4.87-8.88,8.56-12.36,1.15,4.28,2.54,8.49,3.68,12.78,4.36,17.14,5.74,34.82,7.47,52.36-.04,2.03-1.4,3.71-2.33,5.43-2.56,3.87-4.52,8.3-8.32,11.16-1.51-3.37-2.94-6.83-5.22-9.76-7.2-10.28-14.61-20.44-23.18-29.63,6.42-10.02,12.82-20.04,19.34-29.98Z"/>
  </g>
  <g id="_ac693cff" data-name="#ac693cff">
    <path class="cls-16" d="m1116.95,667.98c11.25-15.06,22-30.5,33.09-45.68.93,10.71.15,21.48-.79,32.17-2.24,20.96-7.56,42.35-20.15,59.63-3.92,5.75-9.33,10.17-14.01,15.25-5.2-1.37-10.61-1.09-15.92-1.12,8.23-6.93,15.59-15.34,19.49-25.49,3.39-8.42,3.64-17.8,1.79-26.6-.76-2.88-1.85-5.68-3.5-8.16Z"/>
  </g>
  <g id="_784421ff" data-name="#784421ff">
    <path class="cls-35" d="m963.75,628.74c19.24-5.63,40.61-3.29,58.18,6.33,14.85,8.04,26.89,21.06,33.91,36.4,4.82,10.33,7.01,21.71,7.32,33.07-9.23.14-18.44-.35-27.66-.12.16-6.32-1.76-12.36-3.37-18.39,7.59-5.56,8.81-17.61,2.24-24.41-5.88-6.78-17.19-6.82-23.36-.41-15.07-10.03-35.93-9.99-51.22-.47-15,8.67-24.54,25.51-25.02,42.74-9.21.04-18.52-.74-27.65.81.26-6.7.92-13.41,2.67-19.9,6.69-26.25,27.81-48.34,53.96-55.65Z"/>
    <path class="cls-35" d="m440.86,638.97c12.72-7.81,27.75-11.8,42.67-11.27,16.35.45,32.47,6.38,45.3,16.52,13.46,10.48,23.18,25.53,27.54,41.99,1.77,6.53,2.4,13.3,2.72,20.04-9.13-1.54-18.45-.85-27.66-.81-.06-6.77-1.94-13.35-4.44-19.59,5.62-6.18,5.64-16.55-.3-22.52-5.46-6.02-15.35-6.53-21.67-1.55-11.78-6.63-26.3-7.97-39.15-3.83-11.46,3.89-21.59,11.79-27.75,22.26-4.64,7.87-7.36,16.97-7.42,26.13-9.22-.14-18.44.19-27.66.21.27-11.19,2.39-22.4,7.08-32.61,6.41-14.4,17.28-26.77,30.74-34.97Z"/>
  </g>
  <g id="_c67a48ff" data-name="#c67a48ff">
    <path class="cls-28" d="m844.44,689.52c1.33-16.52,3.81-33.11,9.29-48.8,2.87.85,6.91-.13,8.6,2.96,4.24,6.58,8.99,12.86,12.65,19.8-6.92,8.22-13,17.08-18.69,26.18-2.76,3.23-4.39,7.18-6.05,11.04-2.32-3.46-6.13-6.65-5.8-11.18Z"/>
  </g>
  <g id="_f9f9f9ff" data-name="#f9f9f9ff">
    <path class="cls-3" d="m1011.01,661.21c6.17-6.41,17.48-6.37,23.36.41,6.57,6.8,5.35,18.85-2.24,24.41-6.14,4.48-15.32,4.03-20.72-1.41-6.53-6.01-6.55-17.12-.4-23.41Z"/>
    <path class="cls-3" d="m505.02,661.78c6.32-4.98,16.21-4.47,21.67,1.55,5.94,5.97,5.92,16.34.3,22.52-3.93,4.11-9.95,6.17-15.52,4.77-7.3-1.52-12.76-8.68-12.54-16.09-.02-4.93,2.44-9.56,6.09-12.75Z"/>
  </g>
  <g id="_e6e6e6ff" data-name="#e6e6e6ff">
    <path class="cls-7" d="m1055.84,671.47c11.22-.16,22.41.93,33.58,1.83,10.34.94,20.74,1.4,31.03,2.84,1.85,8.8,1.6,18.18-1.79,26.6-3.9,10.15-11.26,18.56-19.49,25.49-13.16.04-26.33,0-39.49.03,2.21-7.7,3.61-15.69,3.48-23.72-.31-11.36-2.5-22.74-7.32-33.07Z"/>
    <path class="cls-7" d="m345.95,677.63c19.2-1.24,38.35-3.38,57.57-4.31,2.22-.18,4.43.11,6.6.62-4.69,10.21-6.81,21.42-7.08,32.61,0,7.31,1.01,14.6,2.89,21.67-13.66.21-27.33-.3-40.97.28-6.07-5.9-11.99-12.19-15.65-19.91-4.83-9.5-5.84-20.65-3.36-30.96Z"/>
    <path class="cls-7" d="m874.65,697.64c11.51-4.92,23.08-9.81,35.14-13.25-1.75,6.49-2.41,13.2-2.67,19.9-.02,8.1,1.06,16.21,3.47,23.96-21.23-.01-42.45.01-63.67-.01-.75-5.83-.73-11.74.34-17.52,2.86-1.18,5.69-2.47,8.4-3.99,6.1-3.48,12.64-6.09,18.99-9.09Z"/>
    <path class="cls-7" d="m556.37,686.21c9.31,2.88,18.44,6.33,27.47,10.01,12.01,4.76,23.36,10.97,35.1,16.33.86,5.18,1.22,10.47.48,15.7-21.08-.02-42.16.04-63.24-.04,1.93-7.15,3.02-14.55,2.91-21.96-.32-6.74-.95-13.51-2.72-20.04Z"/>
  </g>
  <g id="_be6d32ff" data-name="#be6d32ff">
    <path class="cls-15" d="m1317.63,697.26c2.53,5.37,3.47,11.28,5.2,16.92,6.48,25.14,10.2,51.43,6.81,77.34-2.67,21.69-11.18,42.25-22.23,60.94-3.62,5.42-6.47,11.42-10.97,16.19,2.48-6.3,6.37-11.93,9.05-18.15,5.62-11.9,9.83-24.74,10.18-37.99.28-9.48-.19-19.14-2.91-28.28-3.14-7.2-7.17-14.6-13.67-19.27-7.96-3.47-16.91-1.6-25.3-2.57.48-2.24,1.01-4.47,1.52-6.7,7.34-1.11,14.73-2.9,22.2-1.95,6.47.63,12.54,3.47,17.54,7.57,6-4.53,6.32-12.64,6.96-19.47,1.11-15.01-2.27-29.82-4.38-44.58Z"/>
  </g>
  <g id="_bb6a35ff" data-name="#bb6a35ff">
    <path class="cls-5" d="m149.03,702.36c1.11,3.76-.78,7.6-1.11,11.38-2.02,13.76-3.78,28.03-.48,41.75.73,3.3,2.51,6.28,5.08,8.48,5.95-4.71,13.32-7.55,20.95-7.63,10.79-.48,21.3,2.75,31.27,6.59-10.17,4.45-21.72,1.22-32.32,3.42-7.57,1.64-11.2,9.13-14.82,15.18-4.07,6.22-4.55,13.85-5.25,21.04-1.86,18.27,2.67,36.79,11.12,52.97,1.93,4.5,5,8.51,6.23,13.3-1.99-1.63-3.26-3.88-4.54-6.04-12.06-18.72-21.88-39.29-25.81-61.35-2.68-12.79-2.34-25.91-2.1-38.9,1.4-20.46,5.95-40.58,11.78-60.19Z"/>
  </g>
  <g id="_374548ff" data-name="#374548ff">
    <path class="cls-36" d="m405.93,728.22c9.83.07,19.67,0,29.5.01,30.41.03,60.81,0,91.22.01,9.84-.04,19.69.04,29.53-.03,21.08.08,42.16.02,63.24.04,7.37.13,14.75-.31,22.11.23,7.63.62,13.67,6.21,17.66,12.35,6.71,10.6,9.34,23.19,10.6,35.51.87,9.5.55,19.07-.56,28.54-2.12,13.41-5.79,27.73-15.98,37.39-3.91,3.76-9.31,5.66-14.69,5.72-90.03.99-180.07.48-270.1-.05-11.46-.08-19.41-10.17-23.54-19.82-7.8-18.89-8.7-40.08-5.72-60.11,2.33-13.24,6.59-27.49,17.67-36.07,2.52-1.52,5.25-2.66,8.09-3.44,13.64-.58,27.31-.07,40.97-.28m-42.02,5.82c-7.31,2.54-11.67,9.71-14.67,16.42-5.09,12.33-6.7,25.82-6.61,39.07.27,13.28,2.13,26.87,7.98,38.93,3.57,7.06,9.56,14.58,18.25,14.51,89.88.46,179.76,1.03,269.64.01,4.56.02,9.12-1.84,12.22-5.22,5.48-5.5,8.57-12.85,10.73-20.18,3.86-13.98,4.65-28.71,3.1-43.1-1.41-11.53-4.02-23.48-11.05-33-3.46-4.85-8.91-8.53-15.07-8.21-87.65-.04-175.31,0-262.96-.02-3.86.05-7.82-.32-11.56.79Z"/>
    <path class="cls-36" d="m829.15,730.23c5.53-2.65,11.83-1.88,17.77-1.99,21.22.02,42.44,0,63.67.01,9.97-.08,19.94.07,29.92-.01,29.7.02,59.4-.03,89.1.02,10.02-.02,20.05-.05,30.07,0,13.16-.03,26.33.01,39.49-.03,5.31.03,10.72-.25,15.92,1.12,7.47,2.82,12.65,9.5,16.09,16.46,4.5,9.28,6.61,19.54,7.69,29.75,1.47,16.44.31,33.38-5.3,49-2.92,7.89-7.45,15.67-14.64,20.36-6.39,4.06-14.23,2.96-21.39,3.16-86.38.89-172.75.32-259.13-.1-6.9.1-13.44-3.44-17.61-8.85-7.39-8.72-10.31-20.13-12.58-31.08-.62-5.17-1.44-10.34-1.41-15.56-.13-4.88.56-9.86-.71-14.64l.9.17c1.47-12.6,3.68-25.57,10.44-36.54,2.96-4.55,6.69-8.92,11.71-11.25m3.79,3.85c-4.63,1.49-7.95,5.32-10.66,9.15-6.36,9.91-8.74,21.74-9.97,33.29-1.24,14.06-.33,28.42,3.58,42.03,2.44,7.87,6.05,15.82,12.56,21.15,3.66,2.94,8.51,3.48,13.06,3.33,89,.33,178.01,1.04,267.01-.1,8.49-.1,14.4-7.47,17.88-14.44,5.94-12.05,7.72-25.68,8.06-38.97.07-11.8-1.23-23.73-5.05-34.94-2.49-7.06-6.19-14.12-12.34-18.63-5.14-3.6-11.68-2.56-17.56-2.7-85,0-170,.01-255,0-3.87.05-7.84-.32-11.57.83Z"/>
  </g>
  <g id="_dbe2e3ff" data-name="#dbe2e3ff">
    <path class="cls-10" d="m363.91,734.04c3.74-1.11,7.7-.74,11.56-.79,87.65.02,175.31-.02,262.96.02,6.16-.32,11.61,3.36,15.07,8.21,7.03,9.52,9.64,21.47,11.05,33,1.55,14.39.76,29.12-3.1,43.1-2.16,7.33-5.25,14.68-10.73,20.18-3.1,3.38-7.66,5.24-12.22,5.22-89.88,1.02-179.76.45-269.64-.01-8.69.07-14.68-7.45-18.25-14.51-5.85-12.06-7.71-25.65-7.98-38.93-.09-13.25,1.52-26.74,6.61-39.07,3-6.71,7.36-13.88,14.67-16.42Z"/>
    <path class="cls-10" d="m832.94,734.08c3.73-1.15,7.7-.78,11.57-.83,85,.01,170,0,255,0,5.88.14,12.42-.9,17.56,2.7,6.15,4.51,9.85,11.57,12.34,18.63,3.82,11.21,5.12,23.14,5.05,34.94-.34,13.29-2.12,26.92-8.06,38.97-3.48,6.97-9.39,14.34-17.88,14.44-89,1.14-178.01.43-267.01.1-4.55.15-9.4-.39-13.06-3.33-6.51-5.33-10.12-13.28-12.56-21.15-3.91-13.61-4.82-27.97-3.58-42.03,1.23-11.55,3.61-23.38,9.97-33.29,2.71-3.83,6.03-7.66,10.66-9.15Z"/>
  </g>
  <g id="_1c2224ff" data-name="#1c2224ff">
    <path class="cls-37" d="m669.79,776.34c33.48-6.15,67.87-7.75,101.71-3.89,11.64.99,23.08,3.48,34.6,5.4,1.27,4.78.58,9.76.71,14.64-.03,5.22.79,10.39,1.41,15.56-21.75-7.39-44.72-10.67-67.62-11.25-24.01-.6-48.14,1.89-71.37,8.08,1.11-9.47,1.43-19.04.56-28.54Z"/>
  </g>
  <g id="_a55d2dff" data-name="#a55d2dff">
    <path class="cls-11" d="m804.4,898.41c4.18,5.01,6.62,11.19,9.16,17.14,2.73,7.56,5.31,16.18,1.96,23.99-3.05,7.35-11.36,11.41-19.08,10.8-8.21-.24-15.37-4.86-23.28-6.38-6.43.58-11.12,5.63-16.31,8.94-7.33,5.17-16.14,9.65-25.38,8.21-12.01-1.96-22.21-9.08-32.55-15.01-2.56-1.27-5.48-3.08-8.4-1.85-8.14,2.94-15.24,8.57-23.89,10.07-4.35.82-8.99-.8-11.84-4.18-5.05-5.99-6.34-14.65-3.82-22.01,2.61-8.27,7.24-16.13,13.71-21.95-3.72,7.84-8.42,15.5-9.29,24.33-.94,5.76,1.07,12.89,6.8,15.4,4.71,1.57,9.28-1.25,13.34-3.33,5.71-2.9,11.17-7.41,17.93-7.15,8.87.38,15.92,6.38,22.82,11.29,5.83,4.23,12.9,8.05,20.36,6.62,11.4-2.15,19.58-11.41,30.23-15.34,11.56-4.01,22.38,5.19,33.96,4,3.23-.44,6.63-1.99,7.97-5.17,2.14-5.17,1.39-10.95.76-16.35-.88-7.55-4-14.59-5.16-22.07Z"/>
  </g>
  <g id="_ca3e3eff" data-name="#ca3e3eff">
    <path class="cls-9" d="m667.55,1036.25c12.35-1.29,25.24-1.29,37.03,3.1,11.36,3.6,22.44,8.01,33.85,11.44,5.68,1.93,11.46-.36,17.07-1.36,14.73-3.25,29.15-7.89,44.1-10.14,9.7-2.18,19.83-2.04,29.59-.29,9.04,1.77,17.89,4.44,26.99,5.95,14.8,2.17,29.86.87,44.42-2.25-2.9,6.07-7.29,11.27-11.01,16.86-11.77,15.69-24.59,30.98-40.7,42.4-6.73,4.76-14.4,7.89-21.97,11.02-21.73,8.96-44.93,14.11-68.32,16.02-34.36,1.82-69.13-4.84-100.48-18.98-6.33-3.2-12.95-6.11-18.31-10.86-8.34-7.37-15.64-15.83-22.17-24.82-5.78-7.76-10.58-16.2-16.38-23.94.9-1.51,2.25-2.78,4.12-2.76,21.03-2.02,41.1-9.64,62.17-11.39m82.32,21.64c-6.44-.97-13.04,0-19.41-1.56-10.52-1.51-20.44-5.76-30.99-6.92-2.95-.63-5.21,1.45-7.37,3.05.25,4.08,4.16,5.88,7.54,6.99,10.66,3.45,21.82,4.9,32.9,6.24,9.94,1.61,20.02,1.6,29.98,2.91,6.75.35,13.43-.93,20.03-2.19,3.16-.67,6.61-.53,9.41-2.39,1.27.19,2.58.11,3.87-.1,6.5-1.21,13.04-2.2,19.55-3.32,4.43-.82,9.01-.61,13.35-1.94,9.43-.42,18.82-1.95,27.86-4.69-11.87-2.27-24.26-2.24-35.62-6.73-3.9-1.8-8.29-1.82-12.48-1.82-20.13,1.08-38.68,10.23-58.62,12.47m-97.3,23.88c6.66,7.2,13.6,14.32,21.9,19.65,5.65,3.65,12.53,4.03,18.9,5.56,19.41,3.47,39.03,5.73,58.66,7.1,4.11.95,8.33.45,12.5.82,9.87,1.39,19.49-2.14,28.97-4.37,2.12-.58,4.49-.68,6.28-2.09,6.54-1.13,12.94-3.05,19.13-5.41,10.74-4.24,19.83-11.75,27.49-20.26-27.33,5.15-55.11,7.5-82.88,8.41-14.29-.08-28.64.54-42.88-.92-4.88-1.5-10.06-.45-15.05-1.16-5.81-.78-11.62-1.54-17.46-2.07-11.95-1.05-23.73-3.35-35.56-5.26Z"/>
  </g>
  <g id="_d15858ff" data-name="#d15858ff">
    <path class="cls-25" d="m749.87,1057.89c19.94-2.24,38.49-11.39,58.62-12.47,4.19,0,8.58.02,12.48,1.82-1.2.47-2.39.92-3.58,1.36-6.1-.95-12.43-.96-18.15,1.61-2.41.77-4.82,1.55-7.17,2.46,3.52,3.51,8.74,3.45,13.34,4.12,7.73,1.23,15.63.22,23.32,1.87-4.34,1.33-8.92,1.12-13.35,1.94-6.51,1.12-13.05,2.11-19.55,3.32-1.29.21-2.6.29-3.87.1-5.23-1-10.57-.24-15.8-1.06-9.89-1.05-19.84-1.89-29.56-4.02,1.07-.38,2.16-.73,3.27-1.05Z"/>
  </g>
  <g id="_d46363ff" data-name="#d46363ff">
    <path class="cls-23" d="m817.39,1048.6c1.19-.44,2.38-.89,3.58-1.36,11.36,4.49,23.75,4.46,35.62,6.73-9.04,2.74-18.43,4.27-27.86,4.69-7.69-1.65-15.59-.64-23.32-1.87-4.6-.67-9.82-.61-13.34-4.12,2.35-.91,4.76-1.69,7.17-2.46-.08.93-.16,1.87-.23,2.82,5.49.68,11.07.16,16.54,1.14,2.59.28,5.31,1.16,7.9.29,1.11-3.62-3.71-4.57-6.06-5.86Z"/>
  </g>
  <g id="_dd8383ff" data-name="#dd8383ff">
    <path class="cls-8" d="m799.24,1050.21c5.72-2.57,12.05-2.56,18.15-1.61,2.35,1.29,7.17,2.24,6.06,5.86-2.59.87-5.31-.01-7.9-.29-5.47-.98-11.05-.46-16.54-1.14.07-.95.15-1.89.23-2.82Z"/>
  </g>
  <g id="_cd4b4bff" data-name="#cd4b4bff">
    <path class="cls-24" d="m692.1,1052.46c2.16-1.6,4.42-3.68,7.37-3.05,10.55,1.16,20.47,5.41,30.99,6.92,6.37,1.56,12.97.59,19.41,1.56-1.11.32-2.2.67-3.27,1.05,9.72,2.13,19.67,2.97,29.56,4.02,5.23.82,10.57.06,15.8,1.06-2.8,1.86-6.25,1.72-9.41,2.39-6.6,1.26-13.28,2.54-20.03,2.19-9.96-1.31-20.04-1.3-29.98-2.91-11.08-1.34-22.24-2.79-32.9-6.24-3.38-1.11-7.29-2.91-7.54-6.99Z"/>
  </g>
  <g id="_cf5050ff" data-name="#cf5050ff">
    <path class="cls-31" d="m652.57,1081.77c11.83,1.91,23.61,4.21,35.56,5.26,5.84.53,11.65,1.29,17.46,2.07,4.99.71,10.17-.34,15.05,1.16-1.21,1.69-2.86,4.05-.61,5.74,6.23,4.32,14.05,5.3,21.32,6.75,13.92,2.42,27.97,4.01,42.07,4.85,5.42.7,10.89.95,16.36.84-1.79,1.41-4.16,1.51-6.28,2.09-9.48,2.23-19.1,5.76-28.97,4.37-4.17-.37-8.39.13-12.5-.82-19.63-1.37-39.25-3.63-58.66-7.1-6.37-1.53-13.25-1.91-18.9-5.56-8.3-5.33-15.24-12.45-21.9-19.65Z"/>
  </g>
  <g id="_d35f5fff" data-name="#d35f5fff">
    <path class="cls-19" d="m763.52,1091.18c27.77-.91,55.55-3.26,82.88-8.41-7.66,8.51-16.75,16.02-27.49,20.26-6.19,2.36-12.59,4.28-19.13,5.41-5.47.11-10.94-.14-16.36-.84-14.1-.84-28.15-2.43-42.07-4.85-7.27-1.45-15.09-2.43-21.32-6.75-2.25-1.69-.6-4.05.61-5.74,14.24,1.46,28.59.84,42.88.92Z"/>
  </g>
  <g id="_bd6a33ff" data-name="#bd6a33ff">
    <path class="cls-13" d="m836.19,1288.03c9.09-1.55,17.98-4.01,27.03-5.81-2.09,8.86-4.8,17.55-7.25,26.32-9.18.83-18.31,2.09-27.48,2.97-69.63,5.93-139.88,2.79-209.02-7.05-1.63-7.04-3.97-13.88-5.57-20.92,72.67,17.14,148.99,18.79,222.29,4.49Z"/>
  </g>
  <g id="_cd804bff" data-name="#cd804bff">
    <path class="cls-21" d="m619.47,1304.46c69.14,9.84,139.39,12.98,209.02,7.05,9.17-.88,18.3-2.14,27.48-2.97-4.76,17.46-8.13,35.27-12.27,52.89,13.36,2.54,26.79,4.71,40,7.98-44.16,94.16-88.5,188.24-132.58,282.43-9.65-16.5-18.46-33.5-27.79-50.19-39.2-71.47-78.4-142.93-117.6-214.4-3.24-6.02-6.72-11.91-9.7-18.05,12.22-2.91,24.59-5.06,36.94-7.34-4.53-19.13-8.99-38.27-13.5-57.4Z"/>
  </g>
  <g id="_333333ff" data-name="#333333ff">
    <path class="cls-4" d="m457.82,1385.93c44.01-8.05,88.28-14.75,132.67-20.33,2.88-1.09,4.53,1.27,5.54,3.6,2.98,6.14,6.46,12.03,9.7,18.05,39.2,71.47,78.4,142.93,117.6,214.4,9.33,16.69,18.14,33.69,27.79,50.19,44.08-94.19,88.42-188.27,132.58-282.43.77-1.48,1.66-2.89,2.63-4.23l1.04.08c-42.2,89.25-84.03,178.68-126.11,267.98-3.81,7.77-7.06,15.81-11.23,23.38-52.06-94.46-103.99-189-155.94-283.52-1.5-2.14-2.13-6.44-5.63-5.46-16.71,1.86-33.34,4.47-50.07,6.21.31.87.65,1.75,1.01,2.65-66.32,10.06-132.68,21.46-197.03,40.75-14.79,4.97-29.74,9.62-43.9,16.24-9.74,4.49-19.36,9.51-27.7,16.32-5.12,4.26-9.89,9.45-11.8,15.99-9.06,34.87-15.77,70.29-22.37,105.7-3.41,22.31-7.41,44.55-10.01,66.98-7.08,53.09-11.15,106.56-13.18,160.08-1.98,66.67-1.08,133.55,5.93,199.93,64.28.33,128.56.38,192.83.85l.06,1.16h-196.72c-5.45-50.79-7.22-101.91-7.01-152.97.32-53.81,3.05-107.62,8.53-161.15,1.92-22.07,5.13-44,7.82-65.98,3.68-22.82,6.77-45.74,11.38-68.39,4.47-23.95,9.2-47.87,15.01-71.53,2.22-7.96,2.97-16.58,7.62-23.62,4.99-7.69,12.71-13.01,20.35-17.79,17.76-10.63,37.36-17.61,56.97-23.98,39.8-12.55,80.68-21.34,121.64-29.16Z"/>
    <path class="cls-4" d="m889.16,1365.46c14.21,1.05,28.21,3.92,42.34,5.71,23,4.01,46.09,7.51,68.96,12.19,39.75,7.81,79.32,16.92,117.91,29.34,21.95,7.34,43.85,15.34,63.92,27.04,12.3,7.47,24.88,16.62,30.51,30.4,18.92,47.37,31.55,97.06,40.3,147.25,7.02,37.41,11.52,75.24,15.34,113.1,5.52,61.17,8.26,122.61,7.8,184.04.11,28.67-.57,57.33-1.91,85.97h-3.99c1.25-27.65,2.01-55.32,1.89-83,.59-79.14-3.59-158.35-13.32-236.9-3.01-20.05-5.34-40.2-9.31-60.08-8.7-50.49-21.26-100.5-40.22-148.17-4.95-12.66-16.35-21.18-27.49-28.15-18-11.05-37.9-18.36-57.71-25.39-44.26-14.72-89.86-24.97-135.64-33.72-22.51-4.24-45.18-7.7-67.71-11.71-10.39-3.31-21.31-4.54-31.67-7.92Z"/>
    <path class="cls-4" d="m454,1999.58c34.81-.26,69.64.21,104.46.24,50.12.26,100.25.26,150.38.68h-255.62l.78-.92Z"/>
  </g>
  <g id="_782121ff" data-name="#782121ff">
    <path class="cls-34" d="m887.37,1365.26c.45.05,1.34.15,1.79.2,10.36,3.38,21.28,4.61,31.67,7.92-55.57,108.84-111.09,217.7-166.68,326.53-5.18-6.33-9.16-13.53-13.84-20.22-66.98-101.06-133.99-202.1-200.91-303.19-.36-.9-.7-1.78-1.01-2.65,16.73-1.74,33.36-4.35,50.07-6.21,3.5-.98,4.13,3.32,5.63,5.46,51.95,94.52,103.88,189.06,155.94,283.52,4.17-7.57,7.42-15.61,11.23-23.38,42.08-89.3,83.91-178.73,126.11-267.98Z"/>
    <path class="cls-34" d="m1070.96,1721.38c8.09,93.01,15.58,186.09,23.46,279.12h-45.95c6.05-75.99,12.04-151.99,18.07-227.98,1.48-17.05,2.37-34.16,4.42-51.14Z"/>
    <path class="cls-34" d="m432.25,1725.37c1.18,4.27,1.1,8.73,1.43,13.13,6.8,87.02,13.55,174.05,20.32,261.08l-.78.92h-40.99l-.06-1.16c2.72-41.69,6.17-83.34,9.05-125.02,3.81-49.64,7.27-99.3,11.03-148.95Z"/>
  </g>
  <g id="_c83737ff" data-name="#c83737ff">
    <path class="cls-26" d="m920.83,1373.38c22.53,4.01,45.2,7.47,67.71,11.71,45.78,8.75,91.38,19,135.64,33.72,19.81,7.03,39.71,14.34,57.71,25.39,11.14,6.97,22.54,15.49,27.49,28.15,18.96,47.67,31.52,97.68,40.22,148.17,3.97,19.88,6.3,40.03,9.31,60.08,9.73,78.55,13.91,157.76,13.32,236.9.12,27.68-.64,55.35-1.89,83h-175.92c-7.88-93.03-15.37-186.11-23.46-279.12-2.05,16.98-2.94,34.09-4.42,51.14-6.03,75.99-12.02,151.99-18.07,227.98h-339.63c-50.13-.42-100.26-.42-150.38-.68-34.82-.03-69.65-.5-104.46-.24-6.77-87.03-13.52-174.06-20.32-261.08-.33-4.4-.25-8.86-1.43-13.13-3.76,49.65-7.22,99.31-11.03,148.95-2.88,41.68-6.33,83.33-9.05,125.02-64.27-.47-128.55-.52-192.83-.85-7.01-66.38-7.91-133.26-5.93-199.93,2.03-53.52,6.1-106.99,13.18-160.08,2.6-22.43,6.6-44.67,10.01-66.98,6.6-35.41,13.31-70.83,22.37-105.7,1.91-6.54,6.68-11.73,11.8-15.99,8.34-6.81,17.96-11.83,27.7-16.32,14.16-6.62,29.11-11.27,43.9-16.24,64.35-19.29,130.71-30.69,197.03-40.75,66.92,101.09,133.93,202.13,200.91,303.19,4.68,6.69,8.66,13.89,13.84,20.22,55.59-108.83,111.11-217.69,166.68-326.53Z"/>
  </g>
</svg>