<?xml version="1.0" encoding="utf-8"?>
<!-- Generator: Adobe Illustrator 27.8.1, SVG Export Plug-In . SVG Version: 6.00 Build 0)  -->
<svg version="1.1" id="Calque_1" xmlns="http://www.w3.org/2000/svg" xmlns:xlink="http://www.w3.org/1999/xlink" x="0px" y="0px"
	 viewBox="0 0 300 300" style="enable-background:new 0 0 300 300;" xml:space="preserve">
<style type="text/css">
	.st0{display:none;}
	.st1{display:inline;fill:#893B89;}
	.st2{fill:#FFFFFF;}
</style>
<g class="st0">
	<rect x="3.5" y="3.5" class="st1" width="293" height="293"/>
	<path class="st1" d="M293,7v286H7V7H293 M300,0H0v300h300V0L300,0z"/>
</g>
<g>
	<ellipse class="st2" cx="148.41" cy="152.43" rx="73.52" ry="68.81"/>
	<path class="st2" d="M148.41,87.12c38.61,0,70.02,29.3,70.02,65.31s-31.41,65.31-70.02,65.31s-70.02-29.3-70.02-65.31
		S109.8,87.12,148.41,87.12 M148.41,80.12c-42.54,0-77.02,32.37-77.02,72.31s34.49,72.31,77.02,72.31s77.02-32.37,77.02-72.31
		S190.95,80.12,148.41,80.12L148.41,80.12z"/>
</g>
<g>
	<path class="st2" d="M87.85,94.76c-2.16-0.9-6.04-3.44-10.28-8.12c-4-4.4-6.08-8.26-6.77-10.38c2.17,0.9,6.04,3.45,10.28,8.12
		C85.08,88.78,87.16,92.64,87.85,94.76z"/>
	<path class="st2" d="M69.04,79.35L69.04,79.35L69.04,79.35 M69.4,72.38c-0.64,0-1.17,0.15-1.57,0.47
		c-2.4,1.92,0.79,9.15,7.14,16.13c5.29,5.82,11.09,9.65,14.27,9.65c0.64,0,1.17-0.15,1.57-0.47c2.4-1.92-0.79-9.15-7.14-16.13
		C78.39,76.2,72.58,72.38,69.4,72.38L69.4,72.38z"/>
</g>
<g>
	<path class="st2" d="M117.55,77.61c-1.69-1.23-4.71-4.72-7.36-10.58c-2.52-5.59-3.15-9.96-2.99-11.98
		c1.69,1.23,4.71,4.72,7.36,10.58C117.08,71.22,117.71,75.59,117.55,77.61z"/>
	<path class="st2" d="M106.39,51.06c-0.29,0-0.57,0.05-0.83,0.15c-2.97,1.18-2.32,8.9,1.45,17.25c3.44,7.62,8.29,13.13,11.37,13.13
		c0.29,0,0.57-0.05,0.83-0.15c2.97-1.18,2.32-8.9-1.45-17.25C114.31,56.57,109.46,51.06,106.39,51.06L106.39,51.06z"/>
</g>
<g>
	<path class="st2" d="M148.81,72.35c-1.02-1.83-2.31-6-2.5-11.98c-0.19-5.96,0.84-10.18,1.73-12.07c1.02,1.83,2.31,6,2.5,11.98
		C150.73,66.23,149.7,70.46,148.81,72.35z"/>
	<path class="st2" d="M147.96,44c-0.02,0-0.04,0-0.05,0c-3.1,0.09-5.38,7.46-5.1,16.48c0.28,8.96,3,16.16,6.07,16.16
		c0.02,0,0.04,0,0.05,0c3.1-0.09,5.38-7.46,5.1-16.48C153.75,51.2,151.04,44,147.96,44L147.96,44z"/>
</g>
<g>
	<path class="st2" d="M67.21,121.48c-2.62-0.18-7.02-1.23-12.42-3.71c-5.26-2.42-8.74-4.95-10.48-6.66
		c2.62,0.18,7.02,1.23,12.42,3.71C61.99,117.23,65.47,119.76,67.21,121.48z"/>
	<path class="st2" d="M43.5,107.58c-1.94,0-3.29,0.44-3.77,1.35c-1.34,2.57,4.75,7.96,13.6,12.02c5.71,2.62,11.17,4.06,14.69,4.06
		c1.94,0,3.29-0.44,3.77-1.35c1.34-2.57-4.75-7.96-13.6-12.02C52.49,109.01,47.02,107.58,43.5,107.58L43.5,107.58z"/>
</g>
<g>
	<path class="st2" d="M51.17,156.55c-5.6,0-9.77-0.74-12.23-1.51c2.46-0.77,6.63-1.51,12.23-1.51s9.77,0.74,12.23,1.51
		C60.94,155.81,56.76,156.55,51.17,156.55z"/>
	<path class="st2" d="M51.17,150.04c-9.81,0-17.77,2.24-17.77,5.01c0,2.77,7.96,5.01,17.77,5.01s17.77-2.24,17.77-5.01
		S60.98,150.04,51.17,150.04L51.17,150.04z"/>
</g>
<g>
	<path class="st2" d="M46.64,200c2.06-1.96,5.91-4.81,11.64-7.69c5.62-2.83,10.53-4.39,13.66-4.9c-2.06,1.96-5.91,4.81-11.64,7.69
		C54.68,197.93,49.76,199.5,46.64,200z"/>
	<path class="st2" d="M73.86,183.74c-3.76,0-10.29,1.99-17.16,5.45c-9.75,4.91-16.5,10.91-15.07,13.41
		c0.42,0.74,1.51,1.09,3.08,1.09c3.76,0,10.29-1.99,17.16-5.45c9.75-4.91,16.5-10.91,15.07-13.41
		C76.52,184.09,75.43,183.74,73.86,183.74L73.86,183.74z"/>
</g>
<g>
	<path class="st2" d="M210.88,93.73c1.4-1.91,4.03-4.7,8.05-7.68c3.94-2.93,7.7-4.88,10.25-5.73c-1.4,1.91-4.03,4.7-8.05,7.68
		C217.19,90.93,213.42,92.88,210.88,93.73z"/>
	<path class="st2" d="M231.51,76.32c-3.13,0-8.91,2.64-14.67,6.92c-7.45,5.53-12.06,11.7-10.3,13.79c0.4,0.47,1.08,0.7,2,0.7
		c3.13,0,8.91-2.64,14.67-6.92c7.45-5.53,12.06-11.7,10.3-13.79C233.11,76.55,232.43,76.32,231.51,76.32L231.51,76.32z"/>
</g>
<g>
	<path class="st2" d="M70.82,232.15c1.04-2.26,3.58-6.05,8.04-10.41c4.56-4.45,8.71-7.11,11.2-8.15c-1.04,2.26-3.58,6.05-8.04,10.41
		C77.46,228.46,73.31,231.12,70.82,232.15z"/>
	<path class="st2" d="M91.93,209.59c-3.25,0-9.53,3.81-15.51,9.65c-7.23,7.05-11.28,14.4-9.06,16.41c0.38,0.35,0.93,0.51,1.6,0.51
		c3.25,0,9.53-3.81,15.51-9.65c7.23-7.05,11.28-14.4,9.06-16.41C93.15,209.76,92.6,209.59,91.93,209.59L91.93,209.59z"/>
</g>
<g>
	<path class="st2" d="M109.09,252.72c-0.48-1.95-0.27-6.99,2.28-13.81c2.69-7.19,6.04-11.17,7.68-12.33
		c0.48,1.95,0.27,6.99-2.28,13.81C114.07,247.59,110.72,251.57,109.09,252.72z"/>
	<path class="st2" d="M119.59,222.75c-3.34,0-8.29,6.33-11.51,14.94c-3.47,9.27-3.6,17.67-0.3,18.76c0.24,0.08,0.49,0.12,0.75,0.12
		c3.34,0,8.29-6.33,11.51-14.94c3.47-9.27,3.6-17.67,0.3-18.76C120.1,222.78,119.85,222.75,119.59,222.75L119.59,222.75z"/>
</g>
<g>
	<path class="st2" d="M152.07,258.69c-0.99-1.94-2.21-6.36-2.21-12.69s1.21-10.75,2.21-12.69c0.99,1.94,2.21,6.36,2.21,12.69
		C154.28,252.33,153.07,256.75,152.07,258.69z"/>
	<path class="st2" d="M152.07,228.99c-3.15,0-5.71,7.61-5.71,17s2.55,17,5.71,17s5.71-7.61,5.71-17S155.23,228.99,152.07,228.99
		L152.07,228.99z"/>
</g>
<g>
	<path class="st2" d="M197.87,251.21c-1.98-1.6-5.22-5.26-8.38-11.09c-3.05-5.63-4.31-10.08-4.58-12.51
		c1.98,1.6,5.22,5.27,8.38,11.09C196.34,244.32,197.61,248.77,197.87,251.21z"/>
	<path class="st2" d="M183.54,223.2c-0.3,0-0.58,0.06-0.83,0.18c-2.75,1.31-1.09,9.55,3.71,18.4c4.36,8.05,9.81,13.83,12.83,13.83
		c0.3,0,0.58-0.06,0.83-0.18c2.75-1.31,1.09-9.55-3.71-18.4C192.01,228.98,186.56,223.2,183.54,223.2L183.54,223.2z"/>
</g>
<g>
	<path class="st2" d="M231.04,229.49c-2.32-0.97-6.48-3.67-11.12-8.63c-4.38-4.68-6.71-8.77-7.52-11.03
		c2.32,0.97,6.49,3.68,11.12,8.63C227.89,223.14,230.23,227.23,231.04,229.49z"/>
	<path class="st2" d="M210.89,205.91c-0.64,0-1.17,0.16-1.57,0.48c-2.41,1.98,1.2,9.53,8.04,16.85
		c5.73,6.13,11.91,10.16,15.19,10.16c0.64,0,1.17-0.16,1.57-0.48c2.41-1.98-1.2-9.53-8.04-16.85
		C220.35,209.94,214.17,205.91,210.89,205.91L210.89,205.91z"/>
</g>
<g>
	<path class="st2" d="M256.05,197.5c-2.57-0.13-7.05-1.18-12.58-3.83c-5.4-2.58-8.84-5.27-10.44-7.01
		c2.57,0.13,7.05,1.18,12.58,3.83C251,193.07,254.44,195.76,256.05,197.5z"/>
	<path class="st2" d="M232.5,183.15c-1.93,0-3.28,0.44-3.78,1.37c-1.42,2.62,4.5,8.14,13.23,12.32c5.65,2.7,11.09,4.18,14.61,4.18
		c1.93,0,3.28-0.44,3.78-1.37c1.42-2.62-4.5-8.14-13.23-12.32C241.47,184.63,236.03,183.15,232.5,183.15L232.5,183.15z"/>
</g>
<g>
	
		<ellipse transform="matrix(0.9638 -0.2667 0.2667 0.9638 -23.202 69.3172)" class="st2" cx="243.6" cy="120.08" rx="18.92" ry="4.46"/>
	<path class="st2" d="M256.72,113.44c-3.64,0-8.85,0.81-14.46,2.37c-10.06,2.81-17.62,6.99-16.87,9.34
		c0.33,1.04,2.23,1.55,5.11,1.55c3.64,0,8.85-0.81,14.46-2.37c10.06-2.81,17.62-6.99,16.87-9.34
		C261.5,113.94,259.6,113.44,256.72,113.44L256.72,113.44z"/>
</g>
<g>
	<path class="st2" d="M249.28,157.4c-5.22,0-9.21-0.62-11.72-1.31c2.51-0.68,6.5-1.31,11.72-1.31s9.21,0.62,11.72,1.31
		C258.49,156.77,254.5,157.4,249.28,157.4z"/>
	<path class="st2" d="M249.28,151.28c-9.79,0-17.72,2.15-17.72,4.81s7.93,4.81,17.72,4.81s17.72-2.15,17.72-4.81
		C267,153.44,259.07,151.28,249.28,151.28L249.28,151.28z"/>
</g>
<g>
	<path class="st2" d="M181.77,78.06c-0.21-2.05,0.26-6.37,2.48-11.94c2.33-5.82,5.1-9.4,6.73-10.75c0.21,2.05-0.26,6.37-2.48,11.94
		C186.17,73.12,183.4,76.7,181.77,78.06z"/>
	<path class="st2" d="M191.78,51.29c-3.03,0-7.66,5.72-10.78,13.53c-3.38,8.45-3.71,16.15-0.75,17.2c0.23,0.08,0.46,0.12,0.71,0.12
		c3.03,0,7.66-5.72,10.78-13.53c3.38-8.45,3.71-16.15,0.75-17.2C192.27,51.33,192.03,51.29,191.78,51.29L191.78,51.29z"/>
</g>
</svg>
